<mxfile host="app.diagrams.net" modified="2024-02-28T16:37:23.137Z" agent="Mozilla/5.0 (Windows NT 10.0; Win64; x64) AppleWebKit/537.36 (KHTML, like Gecko) Chrome/122.0.0.0 Safari/537.36" etag="DtjRtBYISsUVOYqscLl9" version="23.1.2" type="device">
  <diagram name="Страница — 1" id="gUnZixZe275JK4TdcDTN">
    <mxGraphModel dx="2261" dy="738" grid="1" gridSize="10" guides="1" tooltips="1" connect="1" arrows="1" fold="1" page="1" pageScale="1" pageWidth="827" pageHeight="1169" math="0" shadow="0">
      <root>
        <mxCell id="0" />
        <mxCell id="1" parent="0" />
        <mxCell id="Jmml3LspPb3dAqlUMCSL-1" value="PiggyBankBackEnd" style="swimlane;whiteSpace=wrap;html=1;" parent="1" vertex="1">
          <mxGeometry x="-40" y="100" width="400" height="810" as="geometry" />
        </mxCell>
        <mxCell id="Jmml3LspPb3dAqlUMCSL-3" value="C#, MS SQL, Entity Framework, WebAPI" style="text;html=1;align=center;verticalAlign=middle;resizable=0;points=[];autosize=1;strokeColor=none;fillColor=none;" parent="Jmml3LspPb3dAqlUMCSL-1" vertex="1">
          <mxGeometry x="70" y="28" width="240" height="30" as="geometry" />
        </mxCell>
        <mxCell id="Jmml3LspPb3dAqlUMCSL-4" value="AimController" style="swimlane;whiteSpace=wrap;html=1;" parent="Jmml3LspPb3dAqlUMCSL-1" vertex="1">
          <mxGeometry x="45" y="58" width="305" height="205" as="geometry" />
        </mxCell>
        <mxCell id="d1NsQLXCly2csUVJhQxa-2" value="" style="shape=image;verticalLabelPosition=bottom;labelBackgroundColor=default;verticalAlign=top;aspect=fixed;imageAspect=0;image=data:image/png,iVBORw0KGgoAAAANSUhEUgAAAeQAAAEPCAYAAACTLbe4AAAgAElEQVR4Ae29/ZdVxZkvfv+frHu/89OsrDmTLM+sXBjurInrJF/QS3wh4wrCMnKjmC+Y0XhjJDc0lys4jNOJYiSoSJTwMiSiDsGAjIIIhBExIUjLm923bei2u6W7eXm+66mqZ++natc+fc7ps5t9mg9rHfZb1VNPPfWp51NPVe3d/2liYoLwgw2AAWAAGAAGgIEbi4H/hAa4sQ0A+8P+wAAwAAwAA4yBXEL+/b53CD/YABgABoABYAAYmB4M5BIyRmwYsQEDwAAwAAwAA9OHARAy1tCxhwAYAAaAAWCgBBioS8jj4+PEv7GxMfxgA2AAGAAGgAFgoEAMRAlZSPjy5cs0OjpKIyMjNDw8jB9sAAwAA8AAMAAMFISBDCELGTMRDw0N0cWLF6m/v5/6+vrMr7e3l/CDDYABYAAYAAaAgfZiIEPIPD3NZHzp0iU6dOFP9OhHW+nrh9fRnENr8IMNgAFgABgABoCBgjDgETJHxzxNzZExkzET8Uvn36We4X7q/WIQP9gAGAAGgAFgABgoCAMZQuboeGBgwETGTMYgYgxEgAFgABgABoCB4jHgETJPV/MGLl4z5ugYkXHxDQCQw8bAADAADAADjIEMIfNuat7AxWvGAAlAAgwAA8AAMAAMTA8GooTMO+dAyNPTAAA67AwMAAPAADDAGGiJkFed2kW1I/+MnXYN7rRjW7HN0OnQ6YABYAAYAAbyMNA0ITOx4BWo1l4BAymjI+Z1RNwHNoABYKBpQkZk3BoZ8yCGbYdOh04HDAADwAAwEMNA04SM6Lh1Qsa6PDphrBPiHnABDAADjAEQcoPrwO0aiKDjoeMBA8AAMAAMxDAAQgYhYxq9oK/uxDoc7sERAwPAQB4GQMggZBAyCBkYAAaAgRJgAIQMQkZHLEFHzBsx4z6iKWDg5sEACBmEPMMJ+R1aWa1RJfmto9/faAI+vYXur36fXjw9SL3711Gl2h6dPtr8fVfP9sibTiL4/aoaVVa9UwgWjeyIjYssczpth7JmDmGXgpCf+XyM4v8GaFdImGfP0EiY+PIH8Xejw7RXz9Aziby9dPRqKEhfR8pO8ra+07r1ztNPb/54HlWqP6BXzhcDwI+2/oBmVefRnWvfobOTkNbZ3SvplmqNlm7/xHOih9YvTMjvx2/k/JWw0zto6X+r0S23d9PvB4qpi7GzIb4a3b/5ZKKjJa02EJYm1UlslWlznbdthGwHHiv3F2jPZutZN72vb3HkyOWso5WrahTaprgyO6UNoGemb9bFbPH2KgchD17WTBicK2L8bCB4pi9VOkOcH9AZ/VjOE1LeS0euyM3Y8bPsYOBGEvIfN9M/VGt0y493T0qWrYKscUL+kJ5fUKPK7JX0pkeoH9Lz36pR5cEf0FKOSP9njq7TRMhxh3uSXlzsk3RL9tKk2mwn1nnbSsgu6m5WnxuS3ifkltqgAb3NAGzVO2SOi7fQRw3kKUoXyC2e0DrdxqUi5OGBN+hvXvuR+71BhyeYKMfoyFmOSFOC9dMdpk8cnw5/vjeNlIW8Rw47eZJujI4aeU/SrN+FZV2mwyfk3kqa3QYCDl+XahUw/772W1Sp3kfP/7EEoH6vm2rVGv3Dxg+TyNPUyxBNjZbv/JC2PcSEvY5+P3yj9G3c4RvililtNW1qCX2dmvIWwrOy7TQ437Mkv3IVTz+rqVdnjzSds0U9Qq6bx0Z6LM+P9rQ+6WDDzga46XpNRjwIWLyOVi7mZ1Inv52ieY1uWR2iaYX4zIAjXTKwsxXWXtYuti568JRvd6ejlrnKto9vD6mLaxeeNdA2d7qlZcogbUva1mwv3RbaflI3HP3+D3tM2R7lIuRBRaiHJIK9TEc+WUNzFMF+bf+TKfEeWk3/9cTHNGxIWUXJPT3uHtGZz5jQV9N/NWT/E5p1MJxyDsoqgIiFmFsi5PO7aPlsjjx30CkNeu0wDKHMo9sWrqQX/3DBAcM5vsWb6c3tK+kfbuUp73n0d9/tpjfPiNMatNGDEJImFF1Wcv4JbXsoPnVuHbN18Mde+h+mLM9RZvT1p45t/ido3c//B82q1mjWg1vozVd5Gr2F6e2IA47Z3pSZOFtLbDLFbRy2IixzLWk9+WJnHYH5AwJbN1dfndeLkP083vqys53olq1LnbxfOP1ksOEIzWubpH2z69oJccV08PQfpCStkcc6KcL30vr66nzmXOUz12L3L/x81q7hAMVh2+ibYozlaPulZTr7JOvMtoyKlOnqnWsvbTucT5mUsthOfdVMf1YqQo5NHNNED/3s4Bp6ZsiuMw9fekuRsSPWg3voiImm1TRzck9LVYTtkW65CfnYxvuoUv0WrXsvAKZzFBJpJMckMhVHk0YoSZoFm+mYcx7i1JJn4rhjzsVNndfWHgo63gUbFd/aTf/O+Q7bKLq2TqXL6Js6S+5oGT30IKFaox/nrUnH9DRlKTKIpXFEpZ200cE54tRhW7vrZ37EZe2s5XhkaspWRKJ10yTF50ICJo+Va4hA54nWRcn/IiTGgGR1mRFZYb0TJxjRgdN69TZp/HaV/LZ95Vm+vmH5nt0zuvtypCzBk6dbYN+0nLD9wuv8MnR5OA/8UwRbsFF9G5WbkCc+pn/53Sr620Nr6Bm3zjzsRdES6QqhKkI+ZKekf5vZASZT1pKXj5LfReMeWet0Uz9vGpDDh2jdrTWqKALNlTF4iH7Oa7hJdGEdC0fF968/RKd4+rh3L61keUkaBRDj7NSUa6RD5U6d9+6i5RzJCpkPv0MrOaoXgvZkWQcX7i62DrtG9790ks6+sdJM/9626h066/TynKsnT9Uhud+IE82m0c4/ddhWvn42GSF7aY1OqixNbIpgpP7JwMgNSEy9dZ6kjrreSn5koOENEFSZWSyFZKTKyOgg+AoHfDIQ8p/fv5h3gU+NkOva1bOLtUdoS76WSDdt37DO4bW2rbKHVx7uZ7EEmzRrk1IRsr82/CP6G0fGPN37t32f2VD3i8iO6rNn3PS0JmRLnrP3ypqwrCETDQ/pqfFyE/Kp7T8wU78/fkOmoRXIh0/Smz9/jBZ9g6eQtVMMHaJcc15xkvqekzkZIZ/fYTZr3RLZrCUE6uvBOi2k508onRU5pc7ZPreE5PRyuhjn6c6bI+RIlOgcaL4jdlF6aSJkZbcMGapnyqZZsnHpNAnr8wippPYJyojowGlz2yUsx7v2SU6Xqc/ZoXkk7Mlg/Xw5iQPkdN5sg62Llp2ehwQcXueUEbFdUj6eBTNoAZZgn6h9ykXI0ejXRaXv/CHZvDWiN2+pzV408odkI5a8SpWmXU0/G7C7ubNRdlkjZLebmaPMyOao369iIv4WrXzLvl509o+7aWU0Qk7J99ThjXQ/R67Vx2hbb9BJjLPLj5Bzp86/6Kff/k89IPDPM5u/nBMtmpBtFBsQhqljag/P2Tu9hGBSh23t5KX1yCl04Jzed+J2sOGiQ53XIxg/j+jfypS1FxHLIExmL7wyAwywowyeJ/XWeotDjaWVKNg8E1vLQHBqEXLcrmnUK4TIbSftKPfMUembtm/YfuF10C5SdxyjpOLZGzZqykadQ8i8Ketcv14QDs776bd7Vyfry397Ot3U5Se8TEdO601h5Y2Q5V3fLKGxE61HgqET9AmSo9jb/o+8ayyOMpvGI8yB3fRjJvLY1LlMT4cRyYmNdCdH7u6+JaVYOdah2udOd+M4naN151EHO2mHt840jdyFEFIiMo5ZZhiEtCLrsAkxmTJTu63cHzpwJ9sQmNRX2iTY8asIwjgyL48ilRgZenXPkoZnb902YZmeHKu7l1cINkcHP62qpwwEjG2/Ty/uVx9EEftWbR1TcszObPh2lwGDtev9m+3OaJkZSG2o9UjbWgidsZSWGbZfeJ21LUhH2xTn7cJDBxHyGprzzkr6m2RHtaJZ82pT8JrSwVX0tUxafq2pU3ZZf0KvPBh711eB/8+76McLvmU+0FH5bwto6U930M9/wI5KnJGQxjy6xUTFNZr1jR/Qyu3H7HpyQCwpaQmJpOSVTJ3vjnzsY/86o8Od64PXoL54h5405dqPmfiOW8qwR3ao9rnTvW2ErOwVIZ52dSTIuVF2ZrIUvN8oHVAu8N8eDJSCkP92/0/Mu8L+60xuqjrcYMVEm7yr7NaHVWQsrxeZYyZtjIy5HHknOe95ji6hbg1cNwzcw910W7VG2d3MzTS8EPIUHRZvLJvrNmhFps4brhMIsanpK9g1gnUTpacDRTuIS69hs4jN0O86pt+VgpA9Em2A1Do5fWMOo12fyWwPIcvUefiZzMbqAgcBO7UXA94SA6LjjiEb9IPJ+wEIeZoHANMLyvYQ8vTqPDlooQ9sBAwAAzMRAyDkGU3I6LQzsdOiTsA1MDAzMQBCBiFjygtrbMAAMAAMlAADIGQQMjpiCToiIp6ZGfGgXdGuzWCgaUKuHfnn5F3fTt5cdSN0Z9s10zhIi84MDAADwMDNg4GmCXnVqV0g5BajarYdOtfN07nQ1mhrYAAYaAYDTRMyC2diQaTc+LvJbCuQMTpmMx0TaYEXYODmw0BLhAyg3HxAQZujzYEBYAAYKBYDUULu6+sz09IwfrHGh31hX2AAGAAGgAHBQIaQR0ZGqL+/n75+eB31DEe+W4wdqVgHBgaAAWAAGAAG2o4Bj5DHx8dpdHSUBgYG6NGPttJL599te4EyEsARo0JgABgABoABYCDFQIaQL1++TENDQ3Towp9MlMykjEg5NRjAA1sAA8AAMAAMFIEBj5AnJiZobGzMRMmXLl0ypMyRMk9f34j3dlFm4zu5YSvYChgABoCBzsZAhpB52lpImSPlixcvmjVl3ujFv97eXvxgA2AAGAAGgAFgoM0YyBAyR8lCyjx9zWvKvNFreHgYP9gAGAAGgAFgABgoCANRQmZSFmIWcuaoGT/YABgABoABYAAYKAYDdQlZiBlHO0CBHWAHYAAYAAaAgaIwAEJ2swFFGRhy0XmBAWAAGAAGGsEACBmEbJYnGgEL0sCpAAPAADBQHAZAyCBkEDIwAAwAA8BACTAAQi5BI2DEWdyIE7aFbYEBYKBTMABCBiFjZAwMAAPAADBQAgyAkEvQCJ0yeoOeiDSAAWAAGCgOAyBkEDJGxsAAMAAMAAMlwAAIuQSNgBFncSNO2Ba2BQaAgU7BQF1C5q904UtdxXyRBV+6gV2BAWAAGAAGNAaihCwkjG9Z4/vd+IY5MAAMAAPAwPRgIEPIQsb8RyXw157wl63w172AAWAAGAAGpgcDGULm8JnJmP8e8tGeQVr99hW6d8d1+vZW/GADYAAYAAaAAWCgKAx4hMzRMU9Tc2TMZMxEvP3ENTo3eIX6h/GDDYABYAAYAAaAgaIwkCFkjo4HBgZMZMxkXFTBkAtQAwPAADAADAADKQY8Qubp6pGREerv7zfRMSLj1FAADWwBDAADwAAwUCQGMoTMu+n6+vrMmnGRBUM2gA0MAAPAADAADKQYiBIy76jjRWsYKjUUbAFbAAPAADAADBSJgZYI+Zn3rtIi7LxueOc524ptVmRDQjYcBTAADAADnY2BpgmZiaWoLd8zXS5IubM7C5wd2g8YAAaKxEDThIzIuPV38Nh2RTYmZMNZAAPAADDQuRhompBnehRbdP3QWTq3s6Dt0HbAADBQJAZAyNP8BbIiGxOy4SyAAWAAGOhcDICQQciYRsdX6IABYAAYKAEGQMggZHTEEnRERDWdG9Wg7dB27cIACBmEDEIGIQMDwAAwUAIMgJBByDO8Ix6hrmqNKsmvm/bd6I53aictqS6jTaeuUP++bqpU26PTyU3LXD3bIy8z6td6F2HDouVndD5PmxbVaMmm89TfatltbL+MvTP6IhKd6TYqPSF/OEGZf3s9EiW6kEmR3hjtt68pvdyf3oudXfik9deZmtmZ3TqgvqDdj8+jSvVR2nKmmI55csujNKs6j+5cc4QuTOIMLry5mm6p1uihbf0eoR9+9t6E/Fbs+sJ7ltT91Ov00Jwa3XLbetrXX0xdTFnGyTqH6+pjSasNhNWqA2c9dN62OXQ78OjaV7Q93UBiEnwkbd1MOm2XZvK1nBaE3FI7tWzvArE5Q3QqLyEfIxqNMae79+ExIdCrdL5OutG+a+ZDJi/3Xa+Tiuj8aZFX7LHlDnBiK91TrdEtj789KVm2WkbjhNxDGxbUqDJ7Ne32CLWHNsyvUeWBR+khjkgfy9F1mgh5X1eNKl1HgkGBcsJT6cRTIQ+dt62EXCBZsq203lOxXWnyKizMuLqB/Fr1gzcyX2kJOYmMB0fptvXn3G+Uzgmtfk7ui2FCyFfod0k6SX+O5m+2XxZbsPmzRM7GC9eMlJELg8m9O14ploglim61sQ+suYMq1e/ShhMl6GgH1lOtWqN7ftnjk51xajV6eEcP7XiICbub9t2wv6XdeMRoiFumtBWBW0LvVlPeQnh6GpzvWcfe1cXTz2oQ4Oxhp8slb0BsISHXzdNNXTzIqNbIj4S1PumMQDqFXaPKop10UoiQy1zUTV2LWJbSS557OqiyzP1ltGmTq6euq8sbtaUpLy3f6KX0Mddsd5GvpvKlvlxnM7Uc09HVxXsu6fgY1CcdpDVOyF69tM10+7nzTcnSgbWdzpu0W6BTcl/rjXPfv9wE9ignIR+7bqPj8THa+NKY+lTnGN3x7hiNePeFkK/R772p7HyClWhZomchy+k4tkTIZ/bQw7M58nydejQog05dqc6j2xeupk2HBx2QrcOpLNpKu7etpntu5SnvefR3962n3adTYvccd8TJ+jr3046H4lPnVo518MdfeMCU5TmajL7+1LHN/1N6uvsBmlWt0awHdtLuX/E0egvT26asCNlo+w1fIVNmQg6W2MSxW0eayjDXktaTL3ZOSad/2B8Q2Lq5+uq82qEHebz1ZWc70c1vE25Lvzwv77DTTwYbpkxFtJ5NbNqk3Uy5Wu/sgEPS5tuSdRM7svxltGSRvna6ZOyiSNjo7OdJbOHqk1xPWp+IHF22l9+t80u7D18hgwPPls4+gR62zVM7p/ipY+OwbFzfVKRcTkLucRFs7wQtCEl2yyjN3ziq7gshS+jsH9Op7ZSgO42Qj//yu1Sp3kFPH0hJ1Dhk56RtBKY2LiWRqXPEEv3p44KtdNx1dnEciRxxNjFn4KbOa2uOBx1l0EbFt66nA5zvkI2ia0+pdBl9Y4Ss6qH1rdYod006pmc9B5ukt/bRjlyTiud4Q/L25Gfl+IQYEKbOa5y4cujK8fc7IjWEp/Mk+ms8+IQc6u7po8vMyHKY8fRw5WR00GVmbZDa0j6zxH2EuhbtpH2bltko38jUhO/IMtRRl63Pjf7ZsrMDFlcHI7dJQvZs5OwjfUTrqc85T3Ad2sObtfDK0O2K89y2nIE2Kychn7aETJ+nJPrtT3yi5Su7uaseIV+n439QMhy5dxQhDx6np2+tUUURaC5AB47Ts7yG60UjfD2Pljx7nHp4+vj8QepieUka1eGNA1ERUATwuVPn5/fQwxzJiqMaPEJdHNULQXuyrCMPdxfLwGDJC+fpwq7VZmr29q4jdMHppYkz1wZJOZosVB2T53wvmyZ1mkEk1CQhazlWV1WWJhTltKX+ycDIDUhMvXUerw5SNyXfEblnL1VOSBRZWzrSkQGRkHNGB12mPrc6aRuYc8YG6xE7cp20fK3vZM9i9VU2MoOTpC7L0h3uOp8uW+U1tjHPZKDI0b3qI1pPfc4ygmttDxlsJW0tNg7LxnUw8Be8z8xjOQn56BUaYcYdv0YvS4QsJJ3wskxRCyHH1pA/o7u2dDYh92x71BDqil0yDa2AOHiednc/Tou/wVPI4jA02YpjlYiA88buOZnGgShnEzqDM6+bzVq3RDZrCYH6erAu99KGD5TORqZ13nFC1hGSm+5zenkEE+oWuc5EiS5Net/aQsvVTjNNZ/XXzzzy0I5d9AicsUf+2vnrdHye55h1HinDO/qEGOrukYMu05MRthNfW7nxQYEus74tjb10ZMxyF+2kTV3plK5n01BHXX99bvTPlp0MMsK03rXK59337RDa0rvWeupz1iu49vDj2V3Z2Lvv65HUCWlmLEmXk5C3TNAH4455ZfPWK0PBxq6QkOU6S8Dh2nDnRMhuNzNHmZHNUfu6mIjvoK7f2deLLpx4m7qiEXJKyD2HNtMSjlyrj9OO80GHNw4kn5Bzp86Hv6Bdj+kBgX+e2fzlnHzRhGwdvFqHTJxkag/fSfqO0XO8TUbIQmTe+qq8b6ydv+e0NcFJxBhZX4065CCvJ9cST7KZyXsWYCAza2DzxqfN/TLr2dLaI1w75mu1bJFrF7GFtJsi0qRNg3YWGxmZKembNk1mh5QcXbbkdUeTRwZKTl7UlqFdg+vUPr7dZJAsWAHxhpi8ea7LSchbr9Jdh8ZslJxExMHJ4ATdbaJniZCD53IphC6R9tbr1CmELO/6ZgmNAVqPBH3HlY1aa3T7annX2DlrL8IWQlXOsv9tWsFEHps6l+lpcVri0D7YTHeyXHffOKRoOdZh2udOd+PMnCN15zqSbdxpWeeX2kDVSTtc0Uum3MPNOyEhJzMNrKNy7FJ3PorzNrKlTeS+rqfSycujSKYOYVhbhE7ebViTeum2CYgiY8tAh4R8Mjpky7SE5/CjbMll2GdpXc21TqPlhzrqZ6Ftu3amH/jQ9nfnWqeufVpn1W6hfC3HPHN1clG+YNqLgkOdg+uUkAUD0s/yB8GZttF64XzGRcolJeTr9G3evLV+MI2UhWDJTU0nu68nIeQh+9qTjpI7g5D7acsDsXd91WjxT3toxYI7zAc6KnO+TQ/9r9fp2Ye5k4vzF7KdR7eYqLhGs77xKHVtO2nXk02HljTKOYgTl4hu+AolU+dvRj72sa/b6HDns8FrUMNHaI0p137M5MYQsrIXHNiMc2CWsCyGEWEC650+gCkvIbvo966N6TvF9n3kIRcZy9T0GN0Ref84eXc5IW5Jf53knWR5R1mTddHnDQPm0Hq6vVqj7G7mZjqdkK0QdDN5VVreWDbXbdCKTJ03XCcQ4gwlRIWVaWljjnIVpk0kqq6nRYfprjPKuxn8TMkJOSXRoolyuuQ3Bqp2fSazPYQsU+fhZzIbqwscCezUfgyEsy2IjttvY+B2+m0KQlZry9NBytML8vYQ8vTqPP2dAPWDzYEBYKAMGAAhz2hCRicrQyeDDsAhMAAMNIIBEDIIGeuaWHMEBoABYKAEGAAhg5DREUvQERsZPSMNoixgYGZjoGlCXrRj5m20mo61Yy6DbYcONbM7FNoX7QsMAAOtYqBpQn7mvex7vdNFaJ1eDtuu1YZCPnRyYAAYAAZmNgaaJmQGBBMLIuXGZwrYViDjmd2R4CjRvsAAMDBVDLREyFMtFPkBXGAAGAAGgAFgwMdAlJD7+vqIp4dhLN9YsAfsAQwAA8AAMFAUBjKEPDIyQv39/XTvjut0Dp9JxKAEO5CBAWAAGAAGpgUDHiGPj4/T6OgoDQwM0Oq3r9D2E9emRYmiRhuQi5EsMAAMAAPAQKdgIEPIly9fpqGhITraM2iiZCZlRMoAdKcAGnoCq8AAMNCpGPAIeWJigsbGxkyUfOnSJUPKHCnz9HWnv3IE/dGGwAAwAAwAA2XGQIaQedpaSJkj5YsXL5o1Zd7oxb/e3l78YANgABgABoABYKDNGMgQMkfJQso8fc1ryrzRa3h4GD/YABgABoABYAAYKAgDUUJmUhZiFnLmqBk/2AAYAAaAAWAAGCgGA3UJWYgZRztAgR1gB2AAGAAGgIGiMABCdrMBRRkYctF5gQFgABgABhrBAAgZhGyWJxoBC9LAqQADwAAwUBwGQMggZBAyMAAMAAPAQAkwAEIuQSNgxFnciBO2hW2BAWCgUzAAQgYhY2QMDAADwAAwUAIMgJBL0AidMnqDnog0gAFgABgoDgMgZBAyRsbAADAADAADJcAACLkEjYARZ3EjTtgWtgUGgIFOwUBdQuavdOFLXcV8kQVfuoFdgQFgABgABjQGooQsJIxvWeP73fiGOTAADAADwMD0YCBDyELG/Ecl8Nee8Jet8Ne9gAFgABgABqYHAxlC5vCZyRh/Dxl/N7TMfzcUugGfwAAwMNMw4BEyR8c8Tc2R8dGeQbp3x3XafuIanRu8Qv3D+MEGwAAwAAwAA8BAURjIEDJHxwMDA7T67SuGjIsqGHIBamAAGAAGgAFgIMWAR8g8XT0yMkL9/f0mOkZknBoKoIEtgAFgABgABorEQIaQeTddX18f8dx8kQVDNoANDAADwAAwAAykGIgSMu+oAyGnRgJgYAtgABgABoCBojHQEiE/895VWrQDO/wa3eHHtmKbFd2YkA+HAQwAA8BA52KgaUJmYmmUiJDOH7SAlDu3o8DJoe2AAWCgaAw0TciIjH2SbWbQwbYrukEhH04DGAAGgIHOxEDThNwMASFtlrzRUTqzo6Dd0G7AADBQNAZAyFuzpFnkQKLoBoV8OA1gABgABjoTAyBkEDKm0fEVOmAAGAAGSoABEDIIGR2xBB0REU1nRjRoN7RbOzEAQgYhg5BByMAAMAAMlAADIGQQ8szuiIP9tHvNo3T7nBpVqt20rwSdrp0jal/WEeqq1qgy+w6657E9dHzKfxTGyWOZ5lcC+53aSUuqy2jTqSvUr8+n2q77ul0dneypysvkP0+bFtVoyabzBfW3ouWHkXCbyjN2nyquLE679oU65t0P003lejI7NKdD6Qn5wwnK/NvrkSjRhUyK9MZov9209XJ/ei92duGT6dnc5TvQZoDwBe1+fB5Vqo/SljPN5Gs87cktj9Ks6jy6c80RupBxKL6cC2+upluqNXpoW7/nYA4/e69zbDVasesL71lS91Ov00NzanTLbetpX78vN0kzSfleuhNb6Z5qjWprjmfKO/7L7yb6lJeQQ+ITAqzvwPd12XSpI/Ll3N59MmMPz271bGzIzi//5INEcjAAACAASURBVKZlbRrUNOekPJ01CevzenWZ9NlkTrUNGB0uuoyi5Yc2aFN5IGSvj5aXkI8RjcaY09378JgQ6FU6XyfdaN818yGTl/uu10lFdP60yCv26DmXSR2F6gSOdG55/O1JybLVMhon5B7asIAjsdW02yPUHtowv0aVBx6lhziieixH17YSsgxUvksbTih7Gdtap1GpLqMNH+QMDpppg8LS+kRqo1FLtvUiqiwhu/qf2EpLZteosmgnnWxRZyO764jnLPrbRirlJOR0YBPiqB3XbSKwFtuzVZ9QeD4QstfHSkvISWQ8OEq3rT/nfqN0Tmj1c3JfDBNCvkK/S9JJ+nM0f7P9stiCzZ8lcjZeuGakjFwYTO7d8UqxRCyvUrUK8ANr7qBKNUY67XAWTco4sJ5q1Rrd88seD0x2CrFGD+/ooR0PMWF3074pT5tOotuZ1w35xwcqjpCnQEyttler+XJJNuKI89NOtd6NE6aNml1Er+3sHG2Xi+J5kGEHFzJISqN7rseSrm5awoM4keEidDs4UdPIOirW52yfunm6SXTxidfXpyKDkDxZXK9F3dS1iPVXeiXtkyMvGczstMsKkSWAuC25LVQ50TrzlK8t19jYpenq4hkN1zZSL6On1nEZmXRi96Qert95dqhRYh9dXnKu6sbydN48+Q4nm8zsS4oJ7j8GF3qK39g+NsjMw2twX+tTrZGPA5tW7JU8M3nysMM2UnYX25k6id27TXsn8iRNzrGchHzsuo2Ox8do40tj6lOdY3THu2M04t0XQr5Gv/emsvMJVqJliZ6FLKfj2JKjPrOHHuaI54HXqUc3ZACwSnUe3b5wNW06POiI0nW8RVtp97bVdM+tPOU9j/7uvvW0+3RKdJ4j4A7sdd40ndW9n3Y8FJ86t3Ks8zj+wgOmLA+IGX39tSOb/6f0dPcDNKtao1kP7KTdv+Jp9Pzp7QNPfZsq1Tvo6QOhnmlnSZy8sp3UWUegMYI7+bv19NBtd5jpeemsOk//8CAd3iS2rVFlzrfpoTUH6aQaiFi5PDg5TzseudfIuuXWx2lD0k6p7jEdBDMXDr9OXUvupb9jLFTn0S3mGDoWVe97ttJxVWeRM+nRtJMigTwZzpnadXmHNcGOc0qJrcy1yPQdZWKfpBz/uW0rhxWtmz4f9vP0a90c7hJdknLE7qFT9WV55bt6ebhW8kxasYFz1jats0+yjyFmL+kP/jO2j+jO8pcsWuZd2/6q6uDqm/Rjdy06Gx0TgrR1jfURIRvJ56/Zq/JcPdMloUBmUL6HP2fPRFeNEz5P9IwQdGJ3v71S+fq+1devi29vsbFXz7ZgJ9ZHBXv+sZyE3OMi2N4JWhCS7JZRmr9xVN0XQpbQ2T+mU9spQXcaIdt10AjpSMeTUbAck8jUdWy5r48LUmdtHY4b0XGaxKH4YDFAz12vHbRR8a3r6QB3lEM2iq49pdZ1M/pKh7DlZPTQ+lYja9L9b9OK2EBFOipP3bKMh/b4A5nhKyRlJZ3QjciZdJNO6+ogRCxHnefws3qNOrXh7avTdXhLOMvosYd58JCmqag2ECeSS8iH1tPtOq86T/SVeg9/Qbse43KWRabxI22a5HPPTDsJeeanN7pqrBhn6tpUn7N8T6Z2lNbRepgL82qy1XL0eeC8PTLR6cK6mmtNLlfII3PzXOmb0c23j8VVzHZBGYI3Z796tjQyk3TLaNO+nbTEXGuSUfIz9VX6RyI6I18Rn2AxczR1l7qp8jIy9TO2jy7ft5e1tcjkZzov55Nn+jyQkStfl2vlaoJP6mfs5fsibg/TzzO2DMvW+k6CnSj2fHnlJOTTlpDp85REv/2JT7R8ZTd31SPk63T8D0qGI/eOIuTB4/T0rTWKOe8EUNLQA8fpWV7DTUDsQFidR0uePU49HLWdP0hdLC9JowBhOlx9Qs6dOj+/hx7mSFYc9OAR6mKyFIIWHZWDS0fUVoeEJF84Txd2rTbkdXvXEbrg9NJEyHXv2faoiRRXvBmuD9uOaMhvznfp6X0yY5DWNSlLTYllyPDfu21kPPdRenbbcTrurZdfoX4ZEMx+nLb8yekgg4AkEnKEwwQ6e5mNigcPWttUV9OuQGZGB2MvIdgaLel27SgOXQ8glI0vHNpMi83Ocm5r39lkcKPy2WfakaU28/MFjohlaLLS5/zMc2y+/JCMsgSh0ms56lza0xvwyDS5SufXQerm16Vu+WG9MrZLB3tWFyEUvwzWI6139plnS6M/tyHbIXbkeigZmfoq+0XIK1tfsYvCLuOXI/PEb6jydNnGHvoZy9Llp7JNW0TsyXaRvp6cc51yBw1heVJGWK5Nl2BE5BkduJ8EP/ZlGVuKbDn6ZWdtaZ9nB82S3z+Wk5CPXqERZtzxa/SyRMhC0gkvyxS1EHJsDfkzumtLZxNyQjq7sqTSP3iednc/Tou/wVPIGky+E/DJV0ApaRQgBJhCqqGzkfXayGYtIVBfD9bpXtrwgSrDyLQdJSQK61SdXk4XA2R3Lp3UdORkoLKZDqvpYetwRT5PIU+BkMPpaB5w3LqMnn7L7Sw3nVXbXZ+nJGgcL6+5PxusuYf2FSedIdl4m4ncWGe/sG893dMyIWuy8NvOlOnwoc8zztW0WWoD37H5jrKuHIUXU0/tIPU5lycONrSrThc+M9e+U/XIMCw/rFdUXmozUzejV1CGtHUjtjSEpyNjbp9ltGlTt5rNUvIz9dX2Vumc7lkScfqHcrxrLUefc97wWpef2iaDmby2WLST9vFUvRo8234ussLycvT32srqZGSaeims6nRenaU8fQzKzuCjTt11Oe68nIS8ZYI+GHfMK5u3XhkKNnaFhCzXWQIO14Y7J0J2u5k5ysyQDndKJuI7qOt3Njq7cOJt6opGyCn59hzabHfgVh+nHec1sCTCyY+Qc6fOkylSTUjpeWbzlxsxT4WQ81678jqq7Da+L7sRxJJ/jW5xg4uTv/knujN3TZaj4R7a98ufumljZzs3K1C5dTXtOBFG6altjVPOkGz6XOscT9tPW+5je3Jb24FZz+Gd9Nhca+MsIbvlg1anrNk5GEeURiqp80yx5BOXdUzJ1HPomDzH5jupDCEHEZVtK+cwtRx9HuQR/TMkHnGCkxGIV35Yr0BeWBeT15Bu4LgDQq5rS5c2XDvm67TtlXzPLowz395Gp2TwYp9FBzNGTrqEY7Ep7a/KyxCwfpYtX+Pd1lvhzNhXykjz8kA/rWu279g20vncoDKoZyrD6miv4/qmZO3L9fTP1N3aMxk8mPrU113LKychb71Kdx0as1FyEhEHJ4MTdLeJniVCDp7LpRC6RNpbr1OnELKQTpbQGJDpNGY2KhUAWaBln9coXePMT+MRpkzPRtY9+2V6OgG/6zAfbKY7zVSXJUTbaVKi1npxx/A6lQayO09APpz32lXYUV3dQr3YieasD+uOn6tv8rrXF7RvdbAuLDMVapYhTrJaV+cUJa86Sp17djzubSwLbac7tRBM1MkGBOLn0zrxeahXNorwbKTtbNpMpQ9IQmzC9QtJzOjkyMDWU/AsAwV3HcgUEhbbiO386DysI1+HDlnKEayq8sN6ZewZ9iexQbaMsN65tuQydH9IrkV2UIfQLgEhS32tnbrJ7HDWbafqJO3Eabv2WTxkSSysW3it8wX2d/aM7bIWbFoddF0DGU5fz37K74icEB/J4NHkD7Au/Tdjy7DssK4BdtyO/HQgEOb3r0tKyNfp27x5a/1gGikLwZKbmk52X09CyEP2tScdJXcGIffTlgdi7/qqBvzTHlqxwO0A5t29/+t1evZhdiLiQCxY9I7cWd94lLq2nbTryQaIkkacjz6mnSCZOs+s11pnwR8JuTMzJXuE1pio037MJNNhFPE0Rch5r10pR2I7oatb1NkM0oHuZXbHsvmy1U7a1W1fE5HOk9GX0/1/G2k3fyVKyuIvgXU/7nawK9tJh5ZIqO4IP3AGyi4JqQwO0j7RtzqP7nlsJx3+jf26lOib6OQIZuqErOop9cUxbfsZYguDc4XXFEflaP+y69dOe5WXkF30e9fG9J1i+z7ykIuMZWp6jO6IvH+cvLucELekv07yTrK8o6zJuujzhhvP7aqNfX2qYRnimBOCbrGD8XotT4/mTJ03rk+L5XuOL/+1q6wejpBnL6NNmY+GtEOXkso49bp9TS46ECmpzl4bQ8cslttnE444k4Gei57T6/aV05462D6cHXSWTc/26FNyQk5JtGiinC75jYFUvj411c9kSvQrEXNroJGp8/AzmY3VpbUyc2XnvnYVL8fuCpfINY34c+V3NDH4kXay472j6xRv15nZftNUV285IH/PyA23sehZ4ui93TYCIau15ekg5XY3YH157SHk+mVMkxNplVR6T9Kmx77rPqZxkxCym4I/3Fvytmm1TZFvxk2bd7SPaSMeQcgzmpDhkNHRgQFgABjoFAyAkEHIGG23cYTbKR0feoKkgIHyYQCEDEIGIYOQgQFgABgoAQaaJuRFO2beRqvpWDvmMth2GJWWb1SKNkGbAAPAQBkw0DQhP/Ne9r3e6SK0Ti+HbVeGRocOcD7AADAADJQPA00TMjciEwsi5cZnCthWIOPygR8OCW0CDAADZcJAS4RcpgpAF3QoYAAYAAaAgZmAgSgh9/X1EU8Pz4QKog7oqMAAMAAMAAOdgIEMIY+MjFB/fz/du+M6nYv8haFOqBR0ROcDBoABYAAY6DQMeIQ8Pj5Oo6OjNDAwQKvfvkLbT1xDlFyCrfCdBiroC0cIDAADwEDzGMgQ8uXLl2loaIiO9gyaKJlJGZFy84YFGGEzYAAYAAaAgWYw4BHyxMQEjY2NmSj50qVLhpQ5Uubp605/5Qj6ow2BAWAAGAAGyoyBDCHztLWQMkfKFy9eNGvKvNGLf729vfjBBsAAMAAMAAPAQJsxkCFkjpKFlHn6mteUeaPX8PAwfrABMAAMAAPAADBQEAaihMykLMQs5MxRM36wATAADAADwAAwUAwG6hKyEDOOdoACO8AOwAAwAAwAA0VhAITsZgOKMjDkovMCA8AAMAAMNIIBEDII2SxPNAIWpIFTAQaAAWCgOAyAkEHIIGRgABgABoCBEmAAhFyCRsCIs7gRJ2wL2wIDwECnYACEDELGyBgYAAaAAWCgBBgAIZegETpl9AY9EWkAA8AAMFAcBkDIIGSMjIEBYAAYAAZKgAEQcgkaASPO4kacsC1sCwwAA52CgbqEzF/pwpe6ivkiC750A7sCA8AAMAAMaAxECVlIGN+yxve78Q1zYAAYAAaAgenBQIaQhYz5j0rgrz3hL1vhr3sBA8AAMAAMTA8GMoTM4TOTMf895Eun3qHxN+6jqy/8JV3d8Bf4wQbAADAADAADwEBBGPAImaNjnqbmyJjJ2BDx0Z/TxMCf6crQBfxgA2AAGAAGgAFgoCAMZAiZo+OBgQEbGR/9OQxfkOExwMEADxgABoABYEBjwCNknq4eGRmh/v5+Ex0jMgZYNFhwDjwAA8AAMFAcBjKEzLvp+vr6zBoBDF+c4WFb2BYYAAaAAWBAYyBKyLyjjjdx6YQ4B3CAAWAAGAAGgIHiMNAaIe99hK69+FfYadfgTju21ZW9j2CAg/V4YAAYAAaAgVwMNE/Iex8BETdIxOGrYiDl4kaWGLXDtsAAMNDpGGiakBEZt/4+tomUMTrMHR12emeC/iAEYAAYmAoGmibkMOrDdXMEPZXGQl50dmAAGAAGZi4GQMgtTj+3OhBBZ5q5nQlti7YFBoCBqWAAhAxCxhQylhGAAWAAGCgBBkDIIGR0xBJ0xKmMqpEXURkwMDMwAEIGIYOQQcjAADAADJQAAyBkEPLM7ogXP6IDTy6n+XNqVKmuoaPt7nR711ClWqPqrYtp1fZjU7flyU20tMq6ut+iTdTXbp2blWd0epC2n7xAV0x922PHvpcedPVsj7ypR4nHaPuiGi19qdl2bDVfq1Fdm8prS1tOoktbymjVTp2Xr7SEfO3Tzyn+72O6LiT63gGbZPwAXZN75rjVZZW0q+n6eFyavSvpmtsx3crGrtadxhk68KO5VKkup9d6igFa36vLaXZ1Li14cg+NTuK0R19fQdVqjR7+9UceCf35me8kZLLqtTPes6TuJ1+lh+fUqHrbOjra14a6HN9IC6s1+uaT+zPlnX1+caJPlJD79tBzt82lypzl9BoTTt16W+dTqTpy4rSOkC2B3k0vvj+ZjDrPnay1e9M0R1fWqNIOUtakWreOadmJLXTetjnYPbS2WiNd16S8ZvVrW/pJyEWVYwYTSbs0nq89dWxTeW1py0l0aUsZEUyqtmiPTctRRmkJ+eqFPEJmCnUEevAAXefLsQPBx0p+TVcN055y91fT1TFLvfH/JV2JCdmRTvVHv52ULFsFaOOEfJheWVCjyuwVdMAj1MP0yvwaVb63nB7mCO+HObq2lZBloLKYXjkedirrLJhAXzmWMziYKiE7x3B244NmgNJ8dCU65zm2NhGXJtVmnZnO2zYHy/VSA5tmdSokfV4bSBulR5+Q0/ut9r0bkq8tbTmJzdpSRofatwWMlp6Qr51dRWfWfsn9VtFlQ6yf07X3/oKuNkzIf0HDT2dlXN4r9/4LfeFF2MURc6sd78Mn51OlGiOdGwDWd9bRN6s1Wvj8YT+iNI67Ro9tP0y7lzJhr6GjFwvWr+dVQ/7xgYoj5CSSmaouTl6MSFzdWyZkTXqTdGQTNcuU9so9SRuY+yvXmMjTRuxCeJbU03u2HmtX2un2ishwdUjTOXtp3UIHWzfPGlrLEX4mEtb6pFPE6RR2MCvAZS5aQ2sXsSypU9qWtt6pHTyydPpuT6bHg6hc6+/KSNtQ2luWENzUupGplxRsOpPP2WrtSpmOr1FiX9OuWuaDZNLl4VPrxu0t7TSkykvON6XtzvJ03jz5dWzDNk3t4GaConK0LrZNND4txsqyJJFiplU/XHS+0hPy9QurVfQrke7ndPVgc4ScTi8HMqaJiKX8lhq0Zwc9Npsjz1fpknbWutMZBz2X5n9nBW1//5Rz0q7zL9pIB369ghbeylPec+nv71tHBz5Owek5Qq/jp2lSvT+i3UvjU+dWjnWYZzfeb8rypiQz+vod1eb/ET33L/fT7GqNZn9vEx3YzNPo+dPbHz51N1Wq8+m5d2K6Sv1j67A+KcQcPde5b8/P6LHv3G10YNtVuR0ipHDF1e3+jc2uPzq9nXOcbI3bI5shWwdxnNYRpoRlrsWJGv3kWcwuVpa0l20L1z46r6enn8dbX3b2EN1S/Eg71cnrSCYhIEeAolsoy9QzIasL5NnI5fVl+XZIdHRp5drISeT6xOOVkZDiMRIcJOU5O4jufj5rg/iShC1P8lm5Mb1dWyb7IwKZQfme7erZhp8JdoYuENtY7OLJ0HVn32RkSr8OdZO2x9G3YWqP0hNydIp57ACN/eLmIWS7DhohHdfZbEQjo3gdmUqHUM8kslqwkc46cjdOQu5PRsi567WnbFR86zr6kOUetFH0N59S67oZfaXjWkBm9NA6VWuUWZPu+y2tig1UZNByfKPdILV0hz+QMc+d40rKEGeXdo5L2x8x09AZ+8YImXVhWYs20tlWZgU8R5bq4Hdc257aMWoHX5eYjO2ljlk5viPl8hVh6rxaz8BpX3HO2ZCIziPt4R2VfOfwExLjdGE5CeFkbVO33kaO1JvzqrpndFTPPF1Te4jttd3ry9T1zMr35WTrlrS/Vw8tR58H9TN10OUH8j2ZYV7OJ3bT54EMbc/J2jFj01AWrjuPkMfepUtP/xea4Mi2iSlriVCvbuiwCPnifnru1hpVFIEmnTQEeP9+epHXcJOOZDsrR3ZLn9lPl5gozr5Ja1lekkZ1AtNB9dSYeubKyp06P7uDHuNIViKKi3toLZOlELSnq3US4SYrIeSlG4/R6GsrzFTn/JV7aNTpJc5Q6n/p18tNFL7q9XB9WOTXqDJnMT23V2YMsvURZ5q1h1sPr843u6dHDcmKPcVRaXln6MNnbGRvCFzs4NVbpw/OM+QQPDdybL2SqIkjeJ6KdZFMXWLy5IdO3Jdj7avK0nlNW9iBlLRXOGAx7aTzRG2g5AdO3ZSvyvHIOSKrbr21HJeX0xsd6z3jtOa5DGYfpKVqB7a2u2AoXm9dT31u29eX47e5qZcMGBc9SEuTPqvbT59z/vA6W6b0n5hdE9voqJjbUkXLSX5jT12ePnd1MTjwB95+fr/ON/uz0hOyv4b8JTojZHyTEHJCOq9FSOXiMTrwL4/Q/d/gKWRxHJpsbQfxySZ2z3UKcUB5ZCLrtZHNWkKgvh6sy3folWNhp7NOIk7IjuycLoZ83LlHyMlA5Tn6cyYiFflTIWSRoZ1JHdsNnaKjTy52U9v1BzVxpxNxZg04PO3Q6xKTR5CRsoyNdV2VI9d5dTo+z3PUOo8jQr/eSv5kkZUuMyKrbr1NXj2AUnXP6KieZYhNPwsHMOpZRqaup0rn6qHbz7NPKMe71nL0Ofez8FqXH/TDjF2DvK59j770YM50dba8sC1ipO/VM9KeN/Pz0hOyv4YcbLb6heymJrp+Mn2WvDI1dsBG0t46cSdFyG43M0eZGdLhdR0m4vm09t9shDh6/Le0Nhohpw7p0sHnaKlZB32Edp+NddB8MsmdOh86Q/t+qAcE/nlm85ebDp0KIee9duV1Zp6y5rreF1tDlrpbJ+QPWvjZHuo2dnow2b3d929raKG7Z97J1c7EzRC0PGXNsoyD9DcdGYetpmt9B26drQxUQmfopc116GIH33F75eq8nhP388j6aStT1r7jdm0iA0OvTNE3PXq6OkJKBgrOpmIjW470h6AcU09ZKw2eBXI822oS1LYy+PBt5OezzxJdNZ6cLjIbYtq2kAhZ6iv4E9vYPsCvpvEgW/Tw+pfR19opbl+79hz286yMtC1v9medTcgb/h8avxhdZTY3r5373x1NyEI6WUJjANcjQelUzql40bPtYPP/t7xrnJ/G60iyXhubOpfp6TBaOvYcLeCy3X3rOH2yloiaO7x97nR3DtA4gsAZXhnKe+0q7NiubqFeivykfH0U52I3jMX0Ffuq8jxnru5rJ9vIuZOT6BPR3Tpnp5eQViTK9J1/2s5r99pzqWfiBL2yVR3Nfd0uKpL28ijnrvNE6+0TFevg4UPX27S/KjMjzxGbwfmDtP0lFbm7vLLbm+3qk4vOa3eFJ3ZxuDNtsXKP2diUrHMn9Wa9lD0z9Q7rmbYD9y+z+1vXVdVNt/PavVqOKk+XbfLqZ4xDnS/ApbNN7g50wZQaECZYSfQMy/PbcenKNbS0bv5Ap0TuzXm/wwn5L+iLn32JLp3NvrM8cfxL9H+fSaPmzltD/ohe+17sXV8F1I920KoF8+3Gozl308M/eZVefJgdtThT6fyyO7hGs7+xnNb++qBdT1YdOCEAj7xTJ5hMnWfWa+3Imj8SsuCZ4DWoJMq0HzPxHK5XjnWSDRNy3mtXmc7s6h9zeNrZBrokDvniYXrth24aevZ8Wvrkm3R0I7/OIvZVbeEcdJI3o4tKi2fJq1pZB99mOznSmWz3euF65LS5wbwaVN0oPfLKLbt+eXp36v3SEvLEM//ZvHscJ1WfaCVt+r7yl+jSej9NSsjyTvJ/pmHeqe1NZxd/3TBQDq6j+Tlfn2pYhkzfxQgkx0FEZfN67f/rNmhFps6jeZqR31Ta/Neusno4Qp79IG3PfDSkvY6/71W7IxuE3F67Ztu0SfklI2SOelOM2Og1vW6ybk31m1Zk2/7jzyi0Igd5GsVxaQl5uolyusprrGHk61NT/UymRMiRiK6JzixT5+FnMhurS5s7Y+5rV/Fy7K5wmXZOI/626e5F2nOD6dC4Tm0ru4k2vGnLLBkhyzp7MiNV1uhYpuTLqt8MxT4IuawRclsA1x5C7mhnfuEgbf/hYvp7sxmrOEI2f1zipYOFfda0o9ugLVjG4AYYmPkYACHPaEKe+QCGk0IbAwPAwEzBAAgZhDx9G2wQKcHWwAAwAAzkYgCEDELOBcdMGXWiHoiggAFgoBMw0DQhX3vxr6Z9Z/J0bbgquhy2XSeAAjrCeQEDwAAwMP0YaJqQr+x9BITcYlTNtgPIpx/ksDlsDgwAA52AgeYJmef/9z5CiJQbf2fZRMYgYwxGsHYGDAADwEAdDLRGyHUEdsIoBDpitAwMAAPAADBQNgxECbmvr89MS5dNWeiDDgQMAAPAADAwUzGQIeSRkRHq7++nqy/8JU0M/BnTC5gNAAaAAWAAGAAGpgEDHiGPj4/T6OgoDQwM0Pgb99HVoz9HI0xDI8zU0R7qhUgGGAAGgIHGMZAh5MuXL9PQ0BBdOvWOiZKZlBEpN25QgA+2AgaAAWAAGGgFAx4hT0xM0NjYmImSL126ZEjZRMov/CVedWrxVaei322G/MZ3u8NWsBUwAAyUGQMZQuZpayFljpQvXrxo1pR5oxf/ent78YMNgAFgABgABoCBNmMgQ8gcJQsp8/Q1rynzRq/h4WH8YANgABgABoABYKAgDEQJmUlZiFnImaNm/GADYAAYAAaAAWCgGAzUJWQhZhztAAV2gB2AAWAAGAAGisIACNnNBhRlYMhF5wUGgAFgABhoBAMgZBCyWZ5oBCxIA6cCDAADwEBxGAAhg5BByMAAMAAMAAMlwAAIuQSNgBFncSNO2Ba2BQaAgU7BAAgZhIyRMTAADAADwEAJMABCLkEjdMroDXoi0gAGgAFgoDgMgJBByBgZAwPAADAADJQAAyDkEjQCRpzFjThhW9gWGAAGOgUDdQmZv9KFL3UV80UWfOkGdgUGgAFgABjQGIgSspAwvmWN73fjG+bAADAADAAD04OBDCELGfMflcBfe8JftsJf9wIGgAFgABiYHgxkCJnDZyZj8/eQDxygy9//Po1/7Ws0/tWv4gcbAAPAADAADAADBWHAI2SOjnmasOJmnQAAD6tJREFUmiPjSwcOWCLesIHGP/6YJj79FD/YABgABoABYAAYKAgDGULm6HhgYMBGxhs2wPAFGR4DHAzwgAFgABgABjQGPELm6eqRkRHq7++30TEiYwxIMCABBoABYAAYmBYMZAiZd9P19fWZNQLN3DjHSA4YAAaAAWAAGCgOA1FC5h11vIkLhi/O8LAtbAsMAAPAADCgMdAaIT/xBE3Mno2ddg3utGNbTbDNMO0DGwADwAAwAAzkYKB5Qn7iCRBxg0QcvioGUsZoGIMyYAAYAAbyMNA8ISMybnlAYiLlnJFRXgPhPjovMAAMAAM3BwaaJuQw6sN1cx9MQce6OToW2hntDAwAA81iAITc4vRzqwORZhsI6dGpgQFgABi4OTAAQgYhY4MFlhGAAWAAGCgBBkDIIGR0xBJ0RERAN0cEhHZGO9fDAAgZhAxCBiEDA8AAMFACDICQQcgzuyOe+yO927Wc5s+pUaW6ho60u9O9sYYq1RpVv76YVr3yH1O35bGXaWmVdXW/hS9Tb7t1blae0WkpbTv2KU2Y+rbHjr3PL3X1bI+8JPJoVEddr2Zs0qj8ZmTWS9uqnp7M/6BtC2u09PmpYvQtWlut0do34pGuadMyYNare1zXBC8lSjsNhLyTrlP83/Xf6h3K+elM7sP/bF43uvaJleXnbV7O1cPDcaXc3esfvl//uae7Lr/+eesgOEvvPjqXKtXl9NqJYgDW+9Jyml2dSwu63qKRSUA68q8/oWq1Rstf/qNHQief/k5CJqu2nfWeJXU/9iotn1Oj6rx1dOR0G+ry/gu0sFqjb3btz5R35pnFiT5RQj79Fq2fN5cqc5bTa0w4dettnVql6siJ0zpCtgR6N72wfzIZdZ47WdrZHVlRo0o7HNxUnLrO2zYyqu/Y67dDHRsmbdIAyet61W33T8m0w4q3LD7aZoNJ6iE6NaFnvt1AyPm2abAdpD0KPE4LIV+tR22OaMe/upPqpbv2viXkiR4r7Opv8oivMTlX3q9PyFc/fJ+u1dE7v/w8vez9lkHhSKf66GuTkmWrZTROyEfoV3fVqDLrJ/SuR6hH6Ff/vUaVJctpOUd4/5ija1sJWQYqi+lX74cdKyXQXx3MGRxMlZBd5zzz3FIzQGk9AslzmG0irqk4dZ23bWTE9VIDm3Y6uUZ11PWapHyPkCdJ22r/KzZfHr7CPjPZdX08IkKezH71n08jIZ+m4S9/mXrk96+nHd0N07V1TFZCpEE6l/7Tv3aE1jAh15dz+a//KtHl4iFLztcOPZXc++wpR8jD79FF0VkdP/tKfeLNey2q1U53vGs+Vaox0qnfwK2WVzffW+vom9UaLXzmiB9RGgdXox++coR2f48Jew0dOVewfideNeQfH6g4Qm5HhGmccErwZvpWO2ZX95YJuVlykCltido+lShujZlStBG7EJ51ouk9W4+1K+x0e0VkuDqk6Vzbad1CsqubZw2t5Qg/M8Wp9UmnUdMp7GBWgMtcuIbWLmRZUicfV4YwnU1svVSEXFdHLc/XS2YqPL3YVtoG7lzqyXX1MKDLdnXwnmsMGVnpckWSTttfzp93befK0zom+bTsT4WQX07xIf3CyFT2cmml/r4vCAlZ+oRtm7UrlrZnRsfT3W9rX5+Z9WxaCXlCr9d+pULDjlyvmWg3JWQvnc7Df/CiCUKuJ0cTpkTLEoWbZ/8khPw+XQl00HmbPW8JTCd20A9nceT5Kl3UQNWd3TijuTT/np/Qtv0fO6J0nWXhC/Tuyz+hhV/nKe+59PeL1tG7x1Mg685snLE4aF1Wcv5H2v29+NS5lWMd3Jnn7jdleZ06o692Ap+Szf8jWv/U/TS7WqPZS16mdzfyNHr+9Pbx1XdTpTqf1r+V1ie1sdQ/tg7rO988R9+762f0w3vuNjqw7arcDjFScHW7/7kW1+i0k09sna2TsZE40k9tHcQBW1JKCcZcS1qjnzyL2cV3tLYtXPvovJ6efh6PqJw9RLe0TaROdfI6QkgGCo6oPCxpG3k6CUEItuqUo+uVEJZrP++ZDHYiU9ZOt6Se5tq3s/8sIOykHqyn5JOlkIj9nV1D20gZXrslstnmYhcpw12bvm7PE/uaMsR+0l5y9O0Zw2Nbllg83aXsmX+8cYT81a/SmJs2vm6mrYWQY/PEEkU3Q8j15WgirUvIMTHUQ9daJOmsY5ocZHYdNEI60jklWpJjEplKJ0xH3Tb6qVHlrhfojAO97cQqTT1Czl2v/dhGxV9fR8dZ7l4bRX9ztVrXzejrd/qMHlIfd8ysSZ9+jVbFBirSmd9/wW6Q+t4OfyBjnlvHkthDO0OX/+Irj5hp6DSN2Eicmmo71oX1XPgCnWllVsAjFSVX6mKOtj3F+TKWtEMMp1X1swlje9E7K8cjU2Uf46R1Xq0nnwvhK/0yebw6SN18xx7q7umjy4zImjRvIzqaOvp4ZLlia68MrY8+Z920rfS5so/IrOcLbF/II2Rpx6A8LiPUJ7GX8wW6b6u0pjz3TJ9nddTtlsWRh7mkbGlzHLP29G1yQwnZJ8L6hHzln5qdso4x6TCJnKkR8mlqNPrW5fD5ZA2SeX5uP63/uk+gmTQC/DP76QVew03IxXXC6lxa+vR+ushE8ad/o7UsL0mjAGE6aI2S0bfIVcfcqfM/7aAfciQrHf7cW7SWyVIIWsmYcJFduMnKOqEaLX3uP2hk20/MVOf8FW/RiNMrdGQXX15uovBV/xquDyuynbOY1r8hMwaqrok+YiPl5Mwztx5enW92T48Yks1Ly3LP0vGnbWQ/+SxDRI+M846kcXZLIpk2EnLWkSrHq3ULnXgwaOK6m3bSeRJb6zop+WF0yulVOd55RlaWFCwpWjITTIWDqoyOgv2wPg7PLRGyroPRO6JrUh/Blh30LV3IO9DbT8heHzJtpMuw51xXjTHf3+h20+eubbnO3gBItznOfVtm7XFDCfmqm36+EkxZe2vNZt32r2jQrdk2M2VdT44mSn9g4NaGkynr2BpyhYanKUJOSGdbhFTO/Qe9+9QjdH+Np5AletNkK51ck03snupMLEdINXEW7rms10Y2awmB+nqwLt+hXx0MgWc7cuJwXDnWeTpdnYM0jsGde84kGaj8gk5mIlKRX6NKy4QsMpzDUg41Opj59GM60rXYTW3XsWFo0+Q6z1nr+/rc2lQTqUcaAVl7kdtkBGh0Us5Wk6smmXrOV+dJ6qhxoOQn699uSpjTh+UIOUVkhfXO5M0jCK2jJqfJyqinW0Zmtu95OJaytMyw/vVk6mdhPpFtjlnseHZymFj7BreLxrxuMz7X7ZaVqfE4GfngeWjbT+nGEfK6993rUKdpzJCtRMj1o89mCLnRKLY+Id/INWS3m5mjzAzp8LoWE/F8WvsbGyGOvP8arY1GyKlTuLj3F7TUrIM+Qrv/FADCOIV8MsmdOv/0LO39Rz0g8M8zm7/qRsiNEXLea1deJ+cpa67rotgastTdOpUsyb5F3cZOS5Pd272/WUML3b3Mpi43Q9DylHXiTP3oxA5SUgfpOzzrHMXBh8TkpfUcd9aR+o5W1vNduTqvRxzaOcv0qdNf5/GIQewe5PXkujaRgaH3TPKro3meYtzYISGVoByjV0zH0CZ1bKv10edcT6/egUyTNp0G97Dq1cHVX+qgZerzTHnBQMazeyBT1pTFxjKA4wF53gDGyPPt6ePTlVE3v2o3Tz/cZzxMIyHHppCJrh36JxdtCiHH09EnO817yELIsVT23eTG5DQcIccK4nvJ61rN7bb2OuEkgBTSyRIag7ceCYpzkk7oEyRHsfN/Ku8a56fxIlhZr1Vrz0ldZHo67IgHf0ELVAe3nTerC+vDkbB93ggh5712FXbqOg7COcdsRJ86TLthLKav2FeV5xy9kGNim0naOJPOyUn0Cm0q0aTMiCiHWpeQxQEbW1u7ZHT1ylZ11CQQJaDURolMnSdqA9+xsx08fOh6h2VG5Om8S1esoaVCZpzWq1favj55cltanRLbK9vaaNKRldZHnydlhbZz9lnxcp2Pc+h+uJS2vcEfiHFytC31eay8UJ/EVtLmkV3WksbZKWlDue8ds+1mB0C2jmaHu247L6/qL7gfXb68oYQ88a9fJnmdKX3tKYcBeyYnZPtu8CSE7ORMlZC9HdlNTF9nHHAuMP9Iry2JveurQH1kB626a77deDTnblr++Kv0wve5Y4hDkE4uu4NrNLu2nNa+/J5dTzZlS5rUqSYOSTm1ZOo8s15rR+X8kZAFTwevQX0qUab9mIl2mmkZriM3Q8h5r11lbOnqFnMQxnHF6qwc9rkj9No/umnoWfNpade/0ZHneG1P7KvaoiFnptJndMWzxvtGp9rK4jF/ffZG14vJNoJtYDVKnkXgdRoI+Sv0mXp/N3kP+ctfJv9d3vx0Jk/lKyZCHq6od5kDuVZeY3I0Ics7yeng4Ks0/pW/pk8D+Vp3L20RhLx3Hc3P+fpU40AQsp1iJ+P12m+6DVqRqfPG9WmHw8l/7Sqrh6v/rKW0LfPRkHboksrofcnuyK4fXaTps7ri2cyzSUBwZhA4xb5YJDmyfrHBa5FlQrZH9tNAyM1N6WqinInnjTkd+frUVD+T2R5Clqnz8DOZjdWlzUST+9pVvBy7K1wi4XQttm26e5H23Dq7U+P6tU0PODbPsZXFruGsUFmjYzvtXOLBwk2CbxByE9FtOwYI0+so2kPI06tzm4nr1Hu07R8X09+bzVjFEbL54xLPv1fYZ007ug1uEmeKNmpz370JcQNCntGEjA4CJwkMAAPAQKdgAIQMQi7lVF+ndCDoCWcPDAAD7cIACBmEDEK+CafG2uVAIAdkBAy0DwNNE/LE7Nlmt3M71lNvNhlsO4C3feCFLWFLYAAYmEkYaJ6Qn3gChNxiVD3xxBMgZESjwAAwAAwAA1EMNE/IbEgmFkTKDQ9MTGQMMo4CcCaNblEXRGvAADAwFQy0RsgY3YBcgAFgABgABoCBtmIgSsh9fX0m+psK0yMvRorAADAADAADwEDjGMgQ8sjICPX399P4175G4x9H/uQfRkRtHREBrI2DFbaCrYABYGAmY8Aj5PHxcRodHaWBgQG6/P3v0/iGDSAfDECAAWAAGAAGgIFpwECGkC9fvkxDQ0N06cABGyVv2IBIeRoaYiaP+lA3RDXAADAADEyOAY+QJyYmaGxszETJly5dMqRsImWevm7xVR/kwx/XAAaAAWAAGAAGJsdAhpB52lpImSPlixcvmjVl3ujFv97eXvxgA2AAGAAGgAFgoM0YyBAyR8lCyjx9zWvKvNFreHgYP9gAGAAGgAFgABgoCANRQmZSFmIWcuaoGT/YABgABoABYAAYKAYD/z8cK+E8FdynsgAAAABJRU5ErkJggg==;" vertex="1" parent="Jmml3LspPb3dAqlUMCSL-4">
          <mxGeometry x="18.519999999999982" y="42" width="264" height="147.82" as="geometry" />
        </mxCell>
        <mxCell id="Jmml3LspPb3dAqlUMCSL-10" value="UserController" style="swimlane;whiteSpace=wrap;html=1;" parent="Jmml3LspPb3dAqlUMCSL-1" vertex="1">
          <mxGeometry x="45" y="450" width="305" height="220" as="geometry" />
        </mxCell>
        <mxCell id="d1NsQLXCly2csUVJhQxa-3" value="" style="shape=image;verticalLabelPosition=bottom;labelBackgroundColor=default;verticalAlign=top;aspect=fixed;imageAspect=0;image=data:image/png,iVBORw0KGgoAAAANSUhEUgAAAdgAAAEMCAYAAABndqegAAAgAElEQVR4Ae19/ZdU1ZX2/D9ZM29+mpWVmmRZszJ0nFkTVumAvoiKcYXgMjBRdIQMxmjECU2YQMI4RMRIUIEo4WMcRQ2CIFEQaULSoiLS8mX3W3bTbXdDd/Ox37XPOfvefc699XGrq7qruh/WKurWvedjn72fs5+z9z339l+NjY1R+BkeHiZ8oANgABgABoABYKB2DPxVSK78e8/eA/hAB8AAMAAMAAPAwDgwkEqwaaSLc8lIHzqBToABYAAYAAZKYQAEm5IiL6UsnMdEAgaAAWAAGKgWAyUJdnR0lPgzMjKCD3QADAADwAAwAAxkxECCYIVUL1++bDY6DQ0N0eDgID7QATAADAADwAAwkAEDHsEKufKusYGBAerr66NisUg9PT3m093dTfhAB8AAMAAMAAPAQGUMeATL6WAm14sXL9KRCx/Twx9up+8cXUs3HlmND3QADAADwAAwAAxkwEBEsBy9clqYI1cmVybWF86/S12DReq+1I8PdAAMAAPAADAADGTAgEewHL329vaayJXJFcSKhQUwAAwAA8AAMFAbBiKC5fQwb2jie64cvSJyrU2hACL0BgwAA8AAMMAY8AiWdwvzhia+5wqAACDAADAADAADwEDtGEgQLO8MA8HWrlCAEboDBoABYAAYYAxkJtiVp3ZToeO/sJOsyp1krCvWGSYcJhwwAAwAA9MLA5kIlokCj+zU9sgSSHZ6TSw4UtgbGAAGMhEsItfayJUXJaw7TDhMOGAAGAAGpg8GMhEsotfaCRb3tafPpIIDha2BAWCAMQCCrfJeaj0WF5h0mHTAADAADEwfDIBgQbBIXWd4Mwuc4/RxjrA1bD1eDIBgQbAgWBAsMAAMAAMNwAAIFgSLidWAiTXelS/qI3oCBlofAyBYECwIFgQLDAADwEADMDDpBLv+yxFK/9dLu0PyO3uGhsLCl/+S/mxuWPbqGVoftbefjl0NG9K/U/qO6ta+kxgr0iZckZ7eRgvzBcrJ555t9GEDJlom2x9cS7n8WnrrUj+9tbJAuZXv1MX5fbj1QTdO23YmmSZVJyfp+XsKtHDrybrooXXG3YTzZVJx0Hr6mHyC7b+smS04VkT3RW9wTf9U5QwR/oXO6MtyHJHsfuq4IifTvr9IkvukEmyR3vjpbMrlf0Qvnm8MyD7c/iOakZ9Nt695h85WmERn96ygG/IFWrzzM+q+ZJ1fLv8gPX9ayWZIon7k0BCn6GRccTCW2xBaHUjWkFmt7TSEYN+hFfkC6bE2RKcVsFN1n2bhI5gCwVatt3rpH+3UZTHXNAQ72Ps6/f2rj7rP63R0jIlvhDrOcsQYE6Zf7ih95vhx8Mv9cSQrZDx01LUn5UbomGnvFzTjzbCvy3T0hJxbQW11INTw0Z6aJ8lHW+m7+QLd8NM9Fcmv1j6qJ9gP6Nl5Bcq1raA3epmYWpVgSznt+hBRcxKsEFa8oKgVLw2v5xFsC8gLQqoLITUcVxNsp+Yh2H5FkEckwrxMHZ+tphsVYX7r4C9iIj2yiv7hxKc0aEhWRbFdXe4c0ZkvmKBX0T8Y8n6CZhwOU7xBXw0gViHaWsHzxzW3US5/Lz37URM4mvfWUSFfoO9u+sBNqBYl2KoduCVcSSHHEaAj6JVrVYrZpV4leue0s4libdkVKzn1G0f1ccpWyjn7lolgy9a5Zy2tuIfT3SGR+mOQVKuJ1iU1rtLQfH6hjKtEFJ4qh9HpWlrBaW0VLZfqh+eDdy2SW8vLY9GLoTJ6d85Tt2l1npYS121avZt6ogczlvjWQWx3Lqvl01mBdDvXOu9Rrwn83TgJuWkINi1RS2Nd9OvDq2n9gL1PO3hxnyJXR5SH91KHiXZVWjc6p1tVBOyRaJMT7PndtKStQLn7d9EpbezAAeTys+mW+Svo+T9d8Invnq30xs4V9N2ZnGKeTf/0g3X0xpkYuJ6jVM4/fXJ/RjseCFPV1qkknLqQjDisS/304b51tPjW20x6WQhLnL3t7wId2SqyFij3j/No8Zr99OFgKC873Qv0x6f+lWawzP94L614ndPVcbmKx4rESpcNnLCpI+Ql4xbn7X678Rq9RuTkrkW/+6nb69+vq695Tt+rE9yfNde0sw91YUlBiMKXz14TW1iCknGF7YSyKzkcJqUd1qvfjx1ndJ1lVjrxxmra8nVt6zlduXvUUQZFcObpKCyrxxLIImRv2rHXRFfdRhbRR1AvRU49ptLY0rLgeKrqqXkJduxT+u83V9K3j6ym9e4+7aAX5UokKgSpCPaITQG/ktgRJSliqcvfUt9Fyx756nLjP64FRMc33Uu5/G209r1gEjpnJkQVfbetpbcMIYlziVfhUZl5W+m4I6NMBOtS1YU1RxSZST/iDJ2czuFHG3SO2sg3ksFFTpGzvdRPRzbwWJPy3vKf8X1hK+9sWvKjRzyijlPWgZ5Kka7niEvU8Zwnl9HOVR/b+pogyhKL58xd31oedazb5GOtL8/xqzrpONMEm5Rdy6v7TGur5PUS+oqIim3BcipSjdt3OBKi9NrS8urjpN4TspXUS7l2nCxpchq5hGzj/jX5ezYqhT+cVz7EzYEpqJOmIVj/3uqj9PeOXDm9+u2eL2woeillx/DZMy4drAnWkmHbfrmnKvdgiQYHdCq6yQl28AitnVmgnCLE2CEFoOw/Qk/dxuQkROecRH42LdxwhE4x6XbvpxXcXlRGtWEcUZy+TOsnPVUt/Ui/rs2wvXfXWkKc9SN6aucROm7u36r+e/fQTzlSb3uEXvykaCffR1td+jV2aPGCYB79lKPWQel/Pj17QrVXabJ6DrxEvYRztn2VcqbauWvC8omZ+9LtuL51X+o4blPGGS5AnN5VnTTbSVrTkp0mW9u/ljfuM00vKbKLrhM6tf0kF03Onqa8jOdBWsjp7XERbIpsJfWSLOuPO9C3kK1pT2RW3yryBcGm4WZ6nmsegk2NTl3U+M6fos1MQ3ozk9r8REN/ijYmyaM/cdlV9Oteu1s5GQU3bwR7auePTFr3p69L2leBdPAkvfHUI7TgJk7Zqokekac4CE18aedcm+I4xMGJ05Tv87toMW+0+km40Ura/Fd6/hMl34FfePcbuy8F6V9ua+aDtPaAS+16zlaPh4+TBJuUQ/UtMpf9tnInnaE6nyAMdS2FJLWD1oSVRqi6rCFETQTqWJfj46S82n6xnpIkq0lVj8PW1/LqPpPtqJRwqN8S+vIiWFUn7Mf77bWl5dXHVnZdTx8n9Kr6rsomUXmrO6N7I1cpPSdlS9MfzmWdq61bvjUIljcpnSvqG6rBcZFe2b8quj/77dPxJie/4GXqOK03STVzBOt2685cR39U9yBlcr61kon1Nlqxz0Z7Zz/aQytSI9iYYE8d3UQLOUrMP0I7ugPQViDYkqnqS0V65SeWEG9Zud9GyoOf0StP8MYsvRlK9df7Ab216XG6xSwMnCzdu2kJ/565gnZ85CLYyMHFdQ0R5MsQTUod0Vni241ZE4BtXxxo4DBNedFncC1I+2rCSnPm+j6rXI+itxIE69dx9zdl8aHqJMZpdKIJNrw3qggkGEdqW0Ff0Vg9UrQ2i645uxgCdNGgPrbp7vFGsOH9YWsjvUDT4/H6l41LZoHp60rsY3ES2l3rLrwW41b3i+Ppo5cWIdjVdOM7K+jvox3DijbNozjBYzWHV9K3EmX5MZzW2UUsz5rGu3U1KGNS86NXJjqfAJLXCxTf0xQHZAnSLysk00/dkr4tkaoWWf36Nt27wz23a4krpZ/ocZ8ivfWf84Jo3JVXUbW0UzKSy0KwXNaQgpJLUoFRO9aBythiMk46Uy96itplPSbLspOVsZi2db+KwLw2wzqRrUNi0ViR45A0gh28Ssdhn2mE4MkuJJ9CsFzXtBdlWRSuIh3ZXdRv8YswIj3E2FxxUOtPH9uxhfLG/T1Iz2+NX9qRGIfuP7+Wnuf+RQ/eNUX8Bhc+JqI6Jeyc6DfCltgG31NVR5NOsN8++IR5VtV//MalhsMNR0yc0bOy7v6qilzlcRjznSibRq7cjzwTW+p6CVlC2ar4XT2IPqMX79fPmqZMwE9200/nuR25vNv2Z7voqR8xUYQEO5tuMFFrgWbc9CNasfO4jTLNJI+dmBBI/B07wihVvadMZMk7hKN09Wy65V/X0RvqxRO+Q+ax3UbffegZr0z34Gcm7W13PCvSE6enCKZuBAtnN7U3m/BiJSLtlHkE+09t+0+yfSedYD1SrIKkWrl81QR7dJ1Jn/q7dbM6ByFPIdys9V153mg1i1O36anqqsc0yUCHnDXav8XsZhZy0YLMzYHo9/TQAbDePHYGwU4gqVcH/Hq9FrE+BCvpX/taxOYBbnW6hLzTT09B+hbRKyLUSVwkgmCbjmDrRQr1Idjp56DrpX+0A+wAA9MdAyDYKUuwmNzTfXJj/JgDwMDkYgAEC4JFCmkSU0hwgJPrAKF/6L+RGMhEsIWO/4qeNW3lzUaTITvrrpGGRNtwFMAAMAAMNBcGMhHsylO7QbA1RrysO4C/ucAPe8AewAAw0EgMZCJYFoSJApFs9c/Gsq5ArpjEjZzEaBv4AgaaEwOZCRaGbE5Dwi6wCzAADAADzYWBBMH29PSYNDAM1VyGgj1gD2AAGAAGWgsDHsEODQ1RsVik7xxdS12DpV+LByO3lpFhL9gLGAAGgIGJx0BEsKOjozQ8PEy9vb308Ifb6YXz72JTDh7fAAaAAWAAGAAGasSAR7CXL1+mgYEBOnLhYxPFMskikp34VQ9WmtA5MAAMAAOtj4GIYMfGxmhkZMREsRcvXjQky5Esp4sn47lR9Fn9TmXoCroCBoABYKD5MOARLKeJhWQ5ku3r6zP3ZHnjE3+6u7vxgQ6AAWAAGAAGgIEqMOARLEexQrKcLuZ7srzxaXBwEB/oABgABoABYAAYyICBBMEyyQrRCtlyVIsPdAAMAAPAADAADFSPgZIEK0SLb7vggB6gB2AAGAAGgIEsGADBuog9i9JQFpMMGAAGgAFgoBIGQLAgWHNLoBJQcB3OBBgABoCBbBgAwYJgQbDAADAADAADDcAACLYBSsUqL9sqD/qCvoABYGAqYgAEC4LFyhUYAAaAAWCgARgAwTZAqVNxJYYxIcIABoABYCAbBkCwIFisXIEBYAAYAAYagAEQbAOUilVetlUe9AV9AQPAwFTEQEmC5bc44U1O1b+xA283ga6AAWAAGAAGNAYSBCukincR4/3LeAc1MAAMAAPAQO0Y8AhWyJVf8o+/poO/HIS/ngQMAAPAADBQOwY8guXQlsmV/x7ssa5+WvX2Ffr+rut013Z8oANgABgABoABYCALBiKC5eiV08IcuTK5MrHuPHGNzvVfoeIgPtABMAAMAAPAADCQBQMewXL02tvbayJXJtcsDaEsgAcMAAPAADAADMQYiAiW08P8x9WLxaKJXhG5xkoCYKALYAAYAAaAgawY8AiWd4v19PSYe65ZG0J5gA8YAAaAAWAAGIgxkCBY3jHGN3GhpFhJ0AV0AQwAA8AAMJAVA5kJdv17V2kBdhZXvbOadcU6y2oYlMdkBgaAAWCgtTGQiWCZKLJsUUbZeEs7SLa1JwocHewHDAADWTGQiWARucaEmXXxwLrLahyUx4QGBoABYKB1MZCJYLOSCsr7hIyJ0roTBbaD7YABYCArBkCwE/iWqqzGQXlMaGAAGAAGWhcDIFgQLFLXeFMZMAAMAAMNwAAIFgSLidWAiYWoo3WjDtgOtqsXBkCwIFgQLAgWGAAGgIEGYAAEC4LFxGrAxKrXChjtIJoCBloXA01NsB+MUeLffo8QiS4kSsQnhot2F++WYnwu7ejCZ/5u30btfsZEacKJcuplWpQvUE4+C16mk5NNuAfWUS6/jg4MXqED7QXKtXfUZRF0cvNDbpy27brj0ejyIdp8qkF2Vnqpu+xpNtfjmei+0+TBubrMgwnBjrNVcxLscaLhNCZ05z44LoR4lc6XKTfcc828GGNLz/UypYjOn5b2Gvtdu2Ev0Z7HZlMu/zBtO9MY53Vy28M0Iz+bbl/dQRcqTOQLb6yiG/IFemBHkYqD52nzAiaowLEah1Q/cqhdd2X05WRsPxCXMYRWB5I1ZFZrO8qZ149gO6g9XyA91rrrVBNSBQzV1LfSS031s8qkxzPRfWeVFeWbknybkmCjyLV/mG7ZcM59humc0OSX5N4oJQR7hd6Mykn5czRnq33z1LytX0TtbLpwzbQydKE/Ojf3xcYSq0TENTuFE9vp7nyBbnjs7YrkV2sf1RNsF22cV6Bc2yraU2RialWCtXIv2nw+mJj1IaLmJNhgEVRvp6wJqd5tT0Z7ejwg2GCexIvSWn3OdKjXfAR7/LqNXkdHaNMLI+rVjCM0990RGvLOC8Feo7e81HFpwpRoVqJbIb+J+K4VUIdWz6Vc/ge08UQTgPrQBirkC3T3b7vchGtRgtXOs6zztoQrKeQ4AnQE3b5OpZhd6tU4Y5d2NlGsLdvezqnfOKqPU7YFyuloVznzMIItW2fBOmpPyyYM+mOQRYVpW1LjKg3N5xfJuLRcoiejuzitHulEdLrZjVONVbCf2iePV/UTLk7Mb5ZP6UWO2zmF7sYg4zJ9aRmdXrzrMhb+1vbKFygqJ+PhlLfuW9d1C8yoTpjW13IkMgi+XSI9ujZ9vMg8c+NV9hLd4rsJ/KOHjSvUfATb5SLM7jGaF5LmtmGas2lYnReCldDW/45TyTHhthzBntlLS9sKlLvvNerSxgsmbi4/m26dv4o2H+33iW/BdtqzYxXdPZNTzLPpn+7dQHtOx0D0HHaKQ/QnbZF2PRCmqmXiB9GROC3lCE6+uYEeuGWuSS+nOsXBfjq6WWQtUO7Gu+iB1YfpZH8oL/fVT4fW3UczWOYbf0DtuzldHZereFzSYeo2HIlKlGvqyDhl3HI/0/124/VJwl1TJOI7bL+uvuYRbCBz8lq5FLAfmfvy2WtCEpYEZVxaH3xsZY3IwODQlRVMis3dbylbuk/uX+v1IVq0QP9249LjN8eKDFNsI+MRAo1+ezjRfQdEauR3cui+vfpWH7rt2C5ldBUSs+7LXUssOkSvoQ08eUJ74XdFX9BA/TUfwZ62BEtfxqR412c+cfIvu9mpHMFep84/qTYcWbcawXb+9geUy8+lJw8FE0WcmVu9C2Hl2tbRAUNIzmmH1/n3vO3U6UCViWBdqrqwulORmfQjDtHJ6RxgtEHniI18IzmdXNoxHX2axxpHJHJ866r4vrCVdzYtXfqYR9RxyjrQU6nJU9Jhqvqe0+Pz2pnqY1sndqxXyCeT8mWNA9DyqGPdJh9rfRWNfDpqLkWKLJ8m2KQ8Wl7dZ9I52bra+UdlEvqqtk/bpiXiDmpf8DId2PyQvV9caoxKR6Z/3bc+NvZPjjeSOcCHxZdeMIyfYEvryrdXbN+kvFauYI4FspcaE86rOT3BOms+gj12hYaYQUev0RaJYIV0I56VlLAQbNo92C/ojm0tTrD9nfTkTJ8QS06W3k56eg6Tk0xC5wjzs2nR053UxaR7/jC1c3tRGQU847Di9GVaP+mpaulH+nVthu39cZ0lxFkP09M7OqnT3L9V/RffpuUcqbc9Rts+vmQJ/MR2l36NHZF1NDyGu2g5R6390v/3aeNfVHuVJlLCCafUDZ143Qg26UB11KqPY7KTcYYLkEoEIOPSZKeP7fXqCZbLB7JIZJ7Qqe5HHyf7NP1zhMY6T/tme2p76GO+pvsOr3l2E33Itz8WjpxlB3f5Nv36euET24zL+O1HZGtkDG0p88/W0W3yfIyxX2IOV8I8rqvAQOzX2O/mI9htY/SXUcekspnpxYFgo1NIsPI7SajhvdVWimC7djxs0rrLd0vaV4Gh/zztWfcY3XMTp2z1RBWik4ktv/Vk1+dcmzLhozSU6osn5pnX6AHeaPVIuNFK+rmPNn+s6uz7lXe/sRimf7mtmQ/Rk/tcatc4SD0OfZwk2KQcqu+qHEm6ExOHaJybdtqmTV1HH9u+tWPVhOW16WTTZc1iRpOCOtbl+Dh0utFCSNWJznl60ASXlF3Lq/tMb0vr2rabrq/q+zRkpiNXjrgXvEyb21XaW49RH/M4ta30ccJuWvaAtLmsble3o897ek3qsrT+Ql3FuPb1nGzTv+4e35KFjSdPMD5cm3BS1bZqPoLdfpXuODJio9goYg0O+sfoThPdSgQbXJefQtASCW+/Tq1DsG637swNdEjdgxTjHWhnYp1L7W/aaO/CibepPTWCjcm068hWWsRRYv4x2nU+mIjGgcgKOrg2eIVKpqoHL9HuRywZ3tp+2EbK/UXa/ThvzNKboVSbxS468Nuf0a1mYeBkOb+XlvLvmato1wkXwaY4B1nFlySalDqis8S3G7PcI+Trtn1xfIGjM+VFn8G1YHOLJqw0gvUcuUQ5srhRztxz1up8QtbgWmKsXoo4TGErxx+Mo1I7MjajQ01Ixg6aYMv3aVPY4b1X/i22CMgvHK/Xd2AbU7bE4sRc822aLYINyc6O2d4a8cfv6SoRVWsbBPKn2MTgS/CSBfMoO6GE24QEe53u4s1MG/rjSFYIk1wqONpdXIFgB5J/IL5VCFaeNY136yqCUqTmR69MdKGz0JGgI8LonqadyMk2uJxybJK+VfduteMVWRPttD1Gu9xzu0KMyTLyuM8lOrDqriAad7IrRyLt1IVg2dkYx6x0lIgKnMN0WYKYjCs4wahd1mOybEyQrm/dryIPj2CjBYDIK7YOyCfViYbO3hGDZD+UjsM+ta3NcTS2wD4eyTFeq++T2zX9Ktwl5FB68RcoYkelDy1j+8vmWe10zOg58BBtPsAvHnHt6PHovkP96r7y62gzv9BD9OldCxewPraiOql40XKy3tX8DOXB7wkl0cT8UPpvToJ10ekdm+JnWu3zsAMucpVU8AjNTXn+NXp2NiJiKX+d5JlYeUY2TCE38nc5Q/jXirTtPv2sqSZXd/zxXlo+z+3I5d22//EaPb2UJ544GZmQs+kGE7UWaMZND1P7jpM2yjQgkDLisPV3PIGjVPUbZSJL3iEcpatn062LNtAe9UYfIcaIYNvm0t3/tskrU+wvmrS33fGsZBFnpQgm3Vmm6EmB3dcxyk4ffVicx4sj2H762H5ybd3EBBuTYiNJbyLbrhrURzaY9Km/WzcrUIQ8hXCz1nfleaPVLE7dpqeqqx4TiK5pVtVT32YcGSrce2ngGucB8Av81oABEKy6P9tosq3OsdXrtYj1IVhJ/9rXIsI5VWdD6Gmy9RRmTBC9ApOTgUkQbNMRbL0mQn0IdjJAiT7rhQG0AywBA5OJARDslCVYTKzJnFjoG/gDBoABECwIFvdWari3AucJ5wkMAAOVMJCJYBfsmnobjxp931XaZ91VMgauY8ICA8AAMDB1MJCJYNe/l3yuVAgE3+UXH6w7TJypM3FgS9gSGAAGKmEgE8FyY0wUiGTLk6lebLCuQK6YiJUmIq4DI8DA1MNAZoIFCKYeCGBT2BQYAAaAgfpjIEGwPT095o+cQ9n1VzZ0Cp0CA8AAMDB9MOAR7NDQEBWLRfr+rut0LuUF8wDG9AEGbA1bAwPAADAwPgxEBDs6OkrDw8PU29tLq96+QjtPXMOmHDy+AQwAA8AAMAAM1IgBj2AvX75MAwMDdKyr30SxTLKIZMe3gsEKEPoDBoABYGB6YiAi2LGxMRoZGTFR7MWLFw3JciTL6WK9KxbH0AcwAAwAA8AAMFAZAx7BcppYSJYj2b6+PnNPljc+8ae7uxsf6AAYAAaAAWAAGKgCAx7BchQrJMvpYr4nyxufBgcH8YEOgAFgABgABoCBDBhIECyTrBCtkC1HtfhAB8AAMAAMAAPAQPUYKEmwQrT4tgsO6AF6AAaAAWAAGMiCARCsi9izKA1lMcmAAWAAGAAGKmEABAuCNbcEKgEF1+FMgAFgABjIhgEQLAgWBAsMAAPAADDQAAyAYBugVKzysq3yoC/oCxgABqYiBkCwIFisXIEBYAAYAAYagAEQbAOUOhVXYhgTIgxgABgABrJhAAQLgsXKFRgABoABYKABGADBNkCpWOVlW+VBX9AXMAAMTEUMlCRYfosT3uRU/Rs78HYT6AoYAAaAAWBAYyBBsEKqeBcx3r+Md1ADA8AAMAAM1I4Bj2CFXPkl//hrOvjLQfjrScAAMAAMAAO1Y8AjWA5tmVzx92Ar/50//C1E6AgYAAaAAWCgHAYiguXoldPCHLke6+o3f2h954lrdK5/ev4l+uIgxg0dAAPAADAADNSOAY9gOXrt7e2lVW9fISZXKLZ2xUJ30B0wAAwAA9MbAxHBcnqY/7h6sVg00Ssi1+kNDDgG2B8YAAaAgfFhwCNY3i3W09NDnFOGYsenWOgP+gMGgAFgYHpjIEGwvGMMBDu9QQGnAPsDA8AAMDB+DGQm2PXvXaUFu7BzrNzOMX2NdcU6A1jHD1boEDoEBoCBVsJAJoJlotDkgePqFxogWTiGVnIMkBV4BQbGj4FMBIvItXpCDRcfrDsAdvyAhQ6hQ2AAGGgVDGQi2JA08Dsb4bYKKCAnHBgwAAwAA+PHAAh2ezaSHM+iAoAdP2ChQ+gQGAAGWgUDIFgQLFLXeGsXMAAMAAMNwAAIFgSLidWAidUqK2zIiWgQGGgcBkCwIFgQLAgWGAAGgIEGYAAEC4LFxGrAxEJU0LioALqFblsFA01NsB+MUeLffo8QiS4kSsQnhot2A9OWYnwu7ejCZxOz0alVQDGt5Dx9mJ5cdBfNyBco195R98XGyc0PUS5foBk3PUxPH+qve/uTZqsD6yiXX0cHeHGij8e5WBF9RW2Ps72Efk69TIvyD9HmUw0iqTrqIiF7vXVRrr26jOM8bV5QoEWbz5fAfQe15wvUfqBBtig3vgm61pwEe5xoOI0J3bkPjgshXqXzZcoN91wzL8bY0nO9TCmi86elvcZ+1z5hLvyxwKMAACAASURBVNGex2ZTLv8wbTvTGDCe3PYwzcjPpttXd9CFCuC78MYquiFfoAd2FKk4aCdRLnRaZoI2hrSy6tGXV+uvizbOKxgCZBJMJdhTr9EDNxbohls20IGirptybJx3gXILXqaTTocxYRQo1/Yz2nU+pV4FfWcdb7XljWxK1mrrmXLaAevjcY1lAhwuCLYE2QW4rItNQbBNSbBR5No/TLdsOOc+w3ROaPJLcm+UEoK9Qm9G5aT8OZqz1b55at7WL6J2Nl24ZloZutAfnZv7YmOJVR7tyeTAtKM6sZ3uzhfohsferkh+tfZRPcE6UmpbRXsM4TQ7wYbyKkcSEeJ2Otqrzmvdj5NgjT36+2lP+12GyJtptd6cBNvA6JLt2miC1dhp5WMQbHULkQo2bj6CPX7dRq+jI7TphRH1asYRmvvuCA1554Vgr9FbXuq4NGFKNCvRrZDfRHzXSn6HVs+lXP4HtPFECRKoYORa+02td2gDFfIFuvu3XQ6ATU6wCXmVDh3Blk5hqbLV6Dgi7DiCjXRoHNY402HSPkfbQcbgQHt6JG7Ot68zqTgTpUs9J485Z6JYa8f2dk79xtG8F4HraFc7YH08eIXK1lmwjtoXJOUvDtro1coYpxXLjWtR+zpaxLJqucROnq6U3s35h2jzZjdONVaxVWqfPEbVT7g4Mb/5FoPWhTtuV7bxsKZldHrxrstYdJt8Tsbg0tyevEpGHk9ttojT/pvdLQ62iywOuT9PzkA3okfJbiXKGvwyxiwupd24XsZ5J3pqwu/mI9guF2F2j9G8kDS3DdOcTcPqvBCshLb+d5xKjgm35Qj2zF5a2lag3H2vUZcGkJ6cBrCz6db5q2jzUbnP54hvwXbas2MV3T2TU8yz6Z/u3UB7TscA9iZgirPxQV+kXQ+EqerqCfbkmxvogVvmmvRy6EhtP/10dLPIWqDcjXfRA6sP08n+UF6Ocvrp0Lr77L3TG39A7bs5XR2Xs8dp8qoyToeeA5A2Evp19xvlOn/3F2nPusfonptYJ5wCnm3HFjg5I4txkgVq36f6121VPA7Sp8rp+s7elpMxWecbR4Xmt5PPryd4UYsD1Yc4yyiNrq+VOh68QqY/ubdtysWOOmkvf4y+fGnjSrGJ0aNbLMi9PWNLV1bsKjK53+LkS/fJ/Yseuf2HaNEC/duNK6ELRUbmml9H7GSJWZXVeNBt8nkjs2uHrym8eeQX1MtkC1M3XmhZ+aroU8vtbh9FY3SLKE/XiriTeKh1rjRPveYj2NOWYOnLmBTv+swnTv5lNzuVI9jr1Pkn1YYj61Yj2M7f/oBy+bn05KEANOIoZDUo323r6IAhJCE+FdlImXnbqdNNBONQ5Dx/i+PxJorr26WqC6s7FZlJP+I4XNlwgh6xka8Qq3zHk+8KHX2ax5qU99ZV8X1hK+9sWrr0MY+oc1HKWukpVd74eudv7QakpbtkURJfs05MyxI6cyFvXcYdK4cXOY2/bKXb8wUqPH6YutSCIbqepm99LnCWcT2rf61HTRKeU5WIpgzB6nbCumnRWbjJyXPwLL/BqdNdyTGI3jXBZhtXrA9uy2EyzQ6anIx+q+3TtmnJoYPaF7xMBzY/ZKO6UmMMx6v71sdGjuR4ozGVa8dcS1+0jMsWpl09p7V8erGhj8WO8q3rxFGxwUxC91Jnan03H8Eeu0JDzKCj12iLRLBCuhHPSkpYCDbtHuwXdMe2FifY/k56cmaBcooQo0lnAKrA2NtJT89hBy+TwoKbo9ZFT3dap37+MLVze1EZVd9N1HIEm56qln6kX9dm2N4f11lCnPUwPb2jkzrDDUPFt2k5R+ptj9G2jy9ZAj+x3aYAZbeqEIQh4btoOUet/dL/92njX9R4Bq9Qurwy0S0Zzrh9Ax3o9uv5OrYOOLGr1RFmbuYq2iXyGqdZImU5eJ52Lft+tCjQROb3ly6LJk2/vCYIW1eXDUlSX9PHQkqxXIFzZLwZm6aQZXRebOEWGtFiyWEjKpc+RkkTRyQWRDda3nBcvk64/UAWIdsEsWn96eOkLk3/kgZO+y6nI76m+07oIkXfMsfDsrqdqM9Y51Z/wfiz2iLs02UjBB8RebMsoluRN/r2x6TtZ+1lr0tEm7RhKZy0zvnmI9htY/SXUcekspnpxYFgo1NIsPI7SajhvdVWimC7djxs0rrLd6dEWP3n/fRkOIEiB6OJTyadPufAaiZUmQj2zGv0AG+0eiTcaCVt3kebP1bA3/cr715ecTBI/3JbMx+iJ/e51K5xGrGT8CPZOHo0kzRVDtU3T/CS8gpRjJNg0/QlY0hzOP3nadsDcXpcHFXVTiXF4WknpdvTjiwkIn1NHwsh6XbCupUJ1qaEdRve+EqOQWynCc53ztyOljchW+TUpS39bds1coXk5KUty/dpCFJHrlx3wcu0uV1FkHqM+pjl033rYyN7su9Id+XaCcZtdOQWpBEJBmVMu2GbYZnE9UA+vu50UdLeYYo40aa2t7bX1DluPoLdfpXuODJio9goYg0O+sfoThPdSgQbXJefQtASCW+/Tq1DsG7368wNdCglpXigne/7zaX2N220d+HE29SeGsHGZNp1ZCst4igx/1jycRED/tIEWzJVPXiJdj9iyerWdpf+7C/S7sd5Y5beDKUmTbGLDvz2Z3SrWRQ4Wc7vpaX8myPCEy6CDSe9ONl8iXtVqnxpeWM5Op97yESUi36Xdv9WylknkIhgJSJfsJ062T684Fl1n41Q0wjWpchrThF7ROA7a008EgWK0wuJSJfVx2kE6xGqLNjkFoJ2lqWOI3ulRL3KVhGRBGP05VMkGd7bTbQVOm5LDiZSShCbX7Zcn1a34b1X/h0vAD2dab2wjF7fKYRVCtemXkziRkaXhfLldYtHwV/Qv61XpS1MXTXPzO/YlwjOeI6XjkCDMTr7CjatrsrVlznYut9NSLDX6S7ezLShP45khTDJpYKj3cUVCHYg+QfiW4Vg5dnNeLeuBllMan6kx0Qnk8CCO3m9QPE9zdJlPEKR9G2JVLXImuir7THa5Z7btZPbErFXLrp3eokOrLKPsnjXmXTFqUcOW038hHO9QsUK8kYO3TmuaMKrtkrKKw6F0/ezUsbD8oqDU+3VxZk4eUU/2rEZIjULFl9f5QjWOnweAzvd0BlavHl60OPSzlsfKxtZOQWPkjlQZKT1Y459smM7VTuuyKbSZqCrCEPmvJIpIPVyfcbX4jGE+q2eYIVwHYbaXy77Ugath0WbX1YbrgIdRfM/xX76WmCzhP7c9bRdxFLWyhTrQs7H3ymY0nZxO6c1juO62t+17nFzEqyLTu/YFD/Tap+HHXCRq6SCR2huyvOv0bOzERFL+eskz8TKM7JhCrmRv6sHT5G23cf3I+VZ0xSAfbyXls9zKUfebfsfr9HTS3myivMQ8pxNN5io1b5NqH3HSbXJRsqkEUU8caJU9RtlIkveISy7afOz6dZFG2iPeluO56iZCNrm0t3/tskrI7ty7Y5nJVNGgq1GXmMLN9lrIlh25Cdeo+W32x3ENt3dYZxkwwhWyAPfapNdytxoSf3YudhKZGPmtJqb1fu3qWKzyuNoYoKNSbGRpDeRbVcNwCMbTPrU361b2Zh++0KeQrhZ67vyEqmVSFX7fdbYRz0dYhZ5HcHecK9L89ZTDt1Wfz8d+KXdId1KDrTpbKt12vLHHK2ruWkiRvW76cfXeguCycAzCFbdn2002VZn4Hq9FrE+BCvpX/taxCYg0AqOJ5O8sks7JbVana0q68OP3FvJgVYeW710NF3b8bHRQvciJc2L6LViJgUE23QEWy/HVh+CnerO78LRl+NUewMchjhRftl/tGO6wiJhqusc46vXHEc7zY4lEOyUJVhMvmaffJAPGAUGpjYGQLAg2IppDjiBqe0EYF/YFxhoDAYyEeyCXVNv41Gj77tK+6w7gLgxIIZeoVdgABhoRgxkItj17yWfKxUCwXf5xQfrrhkBAJngmIABYAAYaAwGMhEsG4GJApFseTLViw3WFci1MeCFU4BegQFgoJkxkJlgm3kwkA2TDRgABoABYKBZMJAg2J6eHvNHzptFQMiByQIMAAPAADDQihjwCHZoaIiKxSJ9f9d1OpfygvlWHCBkxsQEBoABYAAYmAwMRAQ7OjpKw8PD1NvbS6vevkI7T1zDphy8EAAYAAaAAWAAGKgRAx7BXr58mQYGBuhYV7+JYplkEcli5TcZKz/0CdwBA8BAq2MgItixsTEaGRkxUezFixcNyXIky+livSsWx9AHMAAMAAPAADBQGQMewXKaWEiWI9m+vj5zT5Y3PvGnu7sbH+gAGAAGgAFgABioAgMewXIUKyTL6WK+J8sbnwYHB/GBDoABYAAYAAaAgQwYSBAsk6wQrZAtR7X4QAfAADAADAADwED1GChJsEK0+LYLDugBegAGgAFgABjIggEQrIvYsygNZTHJgAFgABgABiphAAQLgjW3BCoBBdfhTIABYAAYyIYBECwIFgQLDAADwAAw0AAMgGAboFSs8rKt8qAv6AsYAAamIgZAsCBYrFyBAWAAGAAGGoABEGwDlDoVV2IYEyIMYAAYAAayYQAEC4LFyhUYAAaAAWCgARgAwTZAqVjlZVvlQV/QFzAADExFDJQkWH6LE97kVP0bO/B2E+gKGAAGgAFgQGMgQbBCqngXMd6/jHdQAwPAADAADNSOAY9ghVz5Jf/4azr4y0H460nAADAADAADtWPAI1gObZlc+e/BXjz1Do2+fi9dfe5v6erGr+IDHQADwAAwAAwAAxkwEBEsR6+cFubIlcnVEOuxp2is9xO6MnABH+gAGAAGgAFgABjIgAGPYDl67e3ttZHrsaegyAyKxCIEizBgABgABoABjYGIYDk9zH9cvVgsmugVkSuAooGCY+ABGAAGgIFsGPAIlneL9fT0mBw7FJlNkdAX9AUMAAPAADCgMZAgWN4xxpuadCEcAzTAADAADAADwEA2DGQn2P3L6NrzX8dOsip3krGuruxfhgUL7mcDA8AAMDDNMJCNYPcvA7FWSazho00g2WwrP6yUoS9gABhodQxkIlhErrU/D2wi2Wm2emv1yQH54eCBAWBgPBjIRLBhVIbf2Qh3PIZCXUx0YAAYAAZaCwMg2BpTvrUsLjA5WmtywF6wFzAADIwHAyBYECw2XiB1DwwAA8BAAzAAggXBYmI1YGKNZ9WLuoiagIGpgQEQLAgWBAuCBQaAAWCgARgAwYJgMbEaMLEQgUyNCAR2hB3Hg4GmJNhrn39J6f8+petCiO8dskVGD9E1OWe+t7uqUnYVXR9Nb82elXLZdgRjk9MUmXifvkHPLLyT2vIFyq3YW/fFRs8L91MuX6C2m5bQ8++cGn/7JzfTYpZVPgs2U89kLxD2r6ZcfjUdG7hAx1bUS4/HaecCN84G2KU2p7mX1uQLtGZ/Ruwbm91PO09mrDfZdg37V3auTX88fmvXxS8cT5kL5a61pu6akmCvXihFsEyJjhAPH6Lr/HPkUPDyi9/TVcOcp9z5VXR1xFJp+v9SrpkJ9gwdenQW5fJL6NWuxgCt56Ul1JafRfN+sZeGw4kV/B5+bTnl8wVa+vsPowmTywcOxEzGejnb8Y3Zl1e3dZRenKfIKs2Rn3yJlt5YoPwta+lYj66bcizkp0hPCNYQYtujtOdsSr1AvyWdl9OpdvCG0FR/JetW6MPIWWs7yvHWjWBVm7WOqf71qidYTw8gWEWm5Ui03LVxzJsK2K8/TmJZm5pgr51dSWfWfMV9VtJlQ5Rf0rX3vkpXqybYr9Lgk8k2Lu+Xc39Dl7wIuHFEW7MhOzfR/HyB8o++UpH8au2jeoJ1pNS2nA4ZwrGTonkJNpQ3Bv+ViBA30SdFdV5PyHESrLFH3yk6tOJOE3Vqcsxmq1LOp3qnX66/piTYWglf26+ux9Xr2iPYuspQAqcT0UfDFz2lMD6JYx6nXpuaYK9fWKWiU4lEv6Srh7MRbJzODdqYIGKV/ss5uHLXPvjFHMrl76EXO5sAaO+spZvzBZr/7FG3Km1ygk3Iq3ToCDY9XaXKVTvJIsJOSdumRJ/lbJ64VnUUZElAUsgxoTvntWK1SjHbtO4VJ5upw6Rm+lpNazjdq1KiXjSuyU853pBYytZZsJrWmDRwieyHSYPH10zbkhpX2QY+v1jGpeVydkuVSco52Xe6VL4er7GB1s2K1X6KWOwdyOSNmeXUtnP9iW65Pw9/uk2nH++6YFG3ac4F5K/lDrNLug99jeuUsgn34WRP05WxgU77mrZS5kGYItaylBuvjLvFvpuaYFNTuiOHaOQ304hgu3bRI20Fyv3wJbqowaWBaSb4LJrzveW08325z+eIb8EmOvT75TR/JqeYZ9E/37uWDn0ak4fnDLgd5bgSTn7gQ9qzOExVV0+wPX9YS0tvmWPSy8aZh85l4BR98oLIWqDcjXfS0l+8QT19obzsdE/RB/+90N47vfEeWvMqp6vjcvY4TV5VxumwtANT6WN3j9Hro+9DOvTfy2jhTayTAuXaZtmxifPW8jiHt2av6l9fr3TsnBvf5/Rk8H47EhVHZ+oIQYmdHKk6Ryf2NjgQudP04vXv2hKsqGsemanzLHPyWpn7mUFdT74BSyZiN9Numn2cbrx+By6Q15bpR+He/Bad+aQlc8UuWqwOogWM0ZnUC8aqr7n+RHZLWlIvzX4BAYu9dZvmnJaVj6VNR4xiW6e7SG6tZydbdE36km93XTDjyc7Xoj7s+KMxSn3zrceoj4XAS4zXa6PcHGiua61FsCPv0sUn/4bGOPLMkCKWCPLqxtaLYM8+ew/l8nPomXcC4DgnKEQVfbetpmOGkCx4o/OyyubveZvorAOsOI2onDjNNEC7VPXNvzionLz0oyY01w0n42Eb+Ub9OHn0JPxkPY9Vk5o9nvPz+L6wlXcWPbJ0mUfUuShlrfSUKm98/eyzdgPSIztlURJfi9LHkTxCTFJGyDspr3Y0ERkef4bm5Qt08+Nv0EW1YIiup+lbnzP6DGUQWdx3wulqB6aPbXlNPB7pJNoJCCOyr46A7bFuk4+1fa1Ok3VSdeCNNym7llf3mdZWeF3X9UjC6Fv15cnAOtMkFujelI3ngNen1mfYpr6mj0NZNBb4OFFWy2aPIyLUdbl/RYSy6ciQaiibrsfHwRilrrWxJnV9HOhJR7CJMSjdh3236O+mJlj/HuxX6IyQ63Qh2L6D9MxMnxDTHIg5VzxIz89hZy+T3IKVo9bF6w9ap372DVrD7UVlFPjN5FEr+RRAp6eqpR/p17UZtndwtSXEf1lCz//+IJ0NNwz1vEIrOVJvW0avfnjGEnjnJpfOjInFEiyP4U5ayVFrn/T/PXrxuBrPwAVKl1cchSXGttvX0rELfj1fx85ZhRGSI8zczOW0R+Q1DqMQODBp+zjt+ffvRYsCj3hSdO3LkOZQpV31nXCQ2mHpY1tHk4BHOtU4Pt2XOo7bFLtYPccLJ4cTVScxVtaHd93aQEdWWt64T6ULpdPwuq7r9xPrhe3jlTPt2TGJHKZdWYAtuJ8Wq3nl9an16Y0rsGt4TZORGo/Rl27TXAt1JLh1+ncLZzMmkVl9Gzwm+g/0mXKdxylYjo5ZNo/EdTsKhxXaS8VFqIcm/93UBOvfgw02H/1GdgsTXT8ZX4se8Rk5ZCNd7z5ra0WwF3+/xKR1V76aEmH1HffTk9FkEaITBye/GeRp5xz4DdjLEGzXS7SUN1r9ONxoJW0upJ0fqom0d6WNRqOIOEj/clsz76dn9rrUrnEYoTOW30mCTcqh+uZJV1Jecd627ZoJNk1fMoY059J3nF5dHKfHxSlV70SUY/KcijqfcLrqWoqz1iTgkUminTpFsFruFOfq6cK7rsdh7azl1ePw2nD9hdd13bJRmScD96tILNRR8NvrU18L29TX9LGRPTnuaHyJsko2rWc+NmVdOp77T8MnlwtlC9tJXA/kc20fe+H+iHQjeaO2VJ3EGNS1qHwwr1vsfOsS7Mb/Q6N9qXdpzclr537e4gTrdr/OXEsfpKQUj63g+35zaM0fbLQ33PkKrUmNYGOCvXj4GVrMUWJ+WfJxETN5ShNsyVT1wBk68GNLVnNWuPRn34d04HHemKU3Q6mJ0nOUjj37KM0xiwIny9ld9Aj/5oiw00WwKZNJVuCVCKq0vLEcZzfdbyLKxVvT7t9KOYkEYpI3TkMi8gWb6Czbhxc8P19oI9Q0B+ZS5DWniFkXzkYSQbEcVh8iW+CgTHmxf3AtuCfqkU7C8Unffj9RCtL0Y695xKLOJ2QNriUccXDdky/tHmy0kBO7xd9pOopIxvQTR2E+4VrbR1hzZY3+NWmJLscbwYaLoFA2bz5Ukk3sznrgsvLb1oswpMcR6DzdJqV0Jf1YXxC178nMZTQO7XGEIydLpO9E3dimCdmatGwLE+xX6dKvv0IXzyafmR3r/Ar9v/VxVNuK92Dl2c14t64GV0xqcerNAjtO/zrwRpGtXC9QfE+zdBl5cYABsqRv1b1bDXCRNSFL2zLa457btU4uliEqG907PUPHfm4fZYmuiezKeUo7ZSdhBXkj2ctMaOknIYvsquX0/b+kjIdlTiNY7ZzH4wyczJFcib6sA5XrsaPTjs1iySPDqN3VdMwci0OOcefpRPerHLPXZrQAED2pNlWdyB5aLynXTdspmAj7TLandXI/7XxBRXGuH72rN9ZZHP0ZfbpdrnJdy7Nmf0Bcpl2HBa3PcFz6Go8/sgMvdjebl22UwrpnD1dWZJPFmODAa0P3oTcahrJpe/Cxu562i1h0bnUiC7EYO3LdJ1i+rm1jd657soYytNjvpiTYsfV/bZ59TSdJnzilbPy87Ffo4ga/TEyw8kzsX9Mg70T20seN/x2DLA14+tyH9OoP+X6kPGuqr7njD3fRynku5ci7bZ94iZ5fyo5MnJiQ5yzKm6jVvk1oze8Pq002UkYcoP6OJ0mUqn6tTGTJO4RlN21+Fs1ZuJYOqTfXeM6AnWTbHJr/b7/2ylxxu3LtjmclS0aCrUZeYwvnaNImdEJecexCsDzRO1+ilbfbHcQ23b3Xvn1Ik484BOdwIwco5/GtNsyl4LzR+qlEKo3uv2z7dn62EmbMvFHztXqfNwm2L6v7+sjTlAQ70cQ3Uf1VDbbDa0361N+tm9XgQp5CuFnru/ISqZVIVVc9pgkAs5Eli7yOYPP3ujRvo2TsO0XHfml3SLeSs2w62zbCPk1FsBzNqflqZFO/GzH+urbZeguCRmMcBDuBUWx1xqzXaxHrQ7CS/rWvRayRpOs6icvLkEle2aUt0WkDVt5+JNxKzrK8nqvDcgu00VQEK/fU4+xNyyzIJO3cgDnUylgDwTYdwdbLKdWHYFsZ3NXIPvz+5jjV3gDnIATLL/uPdkxP4IKjGh2gTL3mHNoBlnwMgGCnLMH6hgbwoQ9gABgABiYWAyBYEOzkbjJBNAf9AwPAwBTFQCaCvfb81yd85+1EbUBqdD+sO6weJ3b1CH1D38AAMDCZGMhEsFf2LwPB1hjxsu4m09DoG44GGAAGgIGJxUA2guUwfv8yQiRb/TOzJnIFuWJxMUVTYHDYE+uwoe/W0nd2goWjAFkAA8AAMAAMAAMVMZAg2J6eHpMGxkqptVZKsBfsBQwAA8BAc2HAI9ihoSEqFot09bm/pbHeTyqyM4zZXMaEPWAPYAAYAAaaBwMRwY6OjtLw8DD19vbS6Ov30tVjT4FgkQIBBoABYAAYAAZqxIBHsJcvX6aBgQG6eOodE8UyySKSbZ7VEFamsAUwAAwAA62DgYhgx8bGaGRkxESxFy9eNCRrItnn/haP5tT4aE6jn61F+9Xv5oauoCtgABiYaAx4BMtpYiFZjmT7+vrMPVne+MSf7u5ufKADYAAYAAaAAWCgCgx4BMtRrJAsp4v5nixvfBocHMQHOgAGgAFgABgABjJgIEGwTLJCtEK2HNXiAx0AA8AAMAAMAAPVY6AkwQrR4tsuOKAH6AEYAAaAAWAgCwZAsC5iz6I0lMUkAwaAAWAAGKiEARAsCNbcEqgEFFyHMwEGgAFgIBsGQLAgWBAsMAAMAAPAQAMwAIJtgFKxysu2yoO+oC9gABiYihgAwYJgsXIFBoABYAAYaAAGQLANUOpUXIlhTIgwgAFgABjIhgEQLAgWK1dgABgABoCBBmAABNsApWKVl22VB31BX8AAMDAVMVCSYPktTniTU/Vv7MDbTaArYAAYAAaAAY2BBMEKqeJdxHj/Mt5BDQwAA8AAMFA7BjyCFXLll/zjr+ngLwfhrycBA8AAMAAM1I4Bj2A5tGVyNX8P9tAhuvzggzT6rW/R6De/iQ90AAwAA8AAMAAMZMBARLAcvXJamCPXi4cOWWLduJFGP/2Uxj7/HB/oABgABoABYAAYyIABj2A5eu3t7bWR68aNUGQGRWIRgkUYMAAMAAPAgMZARLCcHuY/rl4sFm30isgVCwwsMIABYAAYAAZqxoBHsLxbrKenx+TYNQvjGKsyYAAYAAaAAWAgGwYSBMs7xnhTExSZTZHQF/QFDAADwAAwoDGQnWAff5zG2tqwk6zKnWSsqzHWGdIs0AEwAAwAA9MKA9kI9vHHQaxVEmv4aBNIFitbLLKAAWBgemEgG8Eicq15gWEiWaxep9XqFc50ejlT2Bv2DjGQiWDDqAy/s72AI1Q+fmNCAgPAADAwdTEAgq0x5VvL4gITaepOJNgWtgUGgIEQAyBYECzStkjdAwPAADDQAAyAYEGwmFgNmFjhSha/Ed0AA9MPAyBYECwIFgQLDAADwEADMACCBcFiYjVgYiFamX7RCmwOm4cYaDDBvkzXKf3f9Vf0DtzS5Uzto/9lHo+59plty6+bvZ2rRwfThXJnr3/wfvnrnuy6//LHofLxuwkmZOcfaMO9d1JbvkC55fvqvtjofnYx5fIFaissoef21eEvUx3fhK0KwwAADb1JREFUQotZVvnM30Ldk71AeH015fKrqePzz6ljeb30+GfaMd+Ns952UfKWnYPVlgv0Xz8dTO78qM849tGafIHWvF5iLDXquKzdAntMZtmGE+zVclTliHP0my9TuXLX3rcEO9ZlG7v6v6WIrLp2rrxfnmCvfvA+XSsjd+n+S8llz9du6LP07sOzKJdfQq+eKAHUcYKq+4Ul1JafRfPa99FQhbaG/ucJyucLtGTLRzT2uTjCxbTjuJLNTJx6OVvVbgXZ0nTsy6vb6qDf3aHIKs2RH3+JltxYoPzstdRxWtdNORbyU6QnBGsIccajtOfjlHrVjsnpVDsr4wRVf2njr+ackbPWdpSTrI9T/pzGVJvVyJ+pTLVtV1vuc59E6qaDanHRoHL1GYevm4SdqtbxOOZNg/STGEtKPxNEsKdp8Gtfoy75/M9pR1+DdG0tk48QY1DOlf/87xxBVU2w5du5/Hdfj2TpO2LJ9tqRX0bnvvilI9jB96hPZFbfX3yjPJGWeoSnGoOklnn/OZqfL1D+4Vcrkl9q/RTDh+WqJ1hHSjOeoHcN4TQ7wYbyqokaEeJzdPKMOq/1NU6CNXo+9ym9u/xOE3VqcgxtUP631fPiZ/8cRNkVHJgeS5njpiTYWgm/zDiNjqt16tWWCwi2vB1L4KySzJNwHQQ7fltNGMGO6Xud38jRoCPLayYajQnWK6fr8B8gyECw5drRBCjRrETJ5tqvhGDfpyuBDLpu1uNaJ15n+xzK5e+h370/foPXKkNUb99aujlfoPnrO5yjb3KCTcirdOgINklaqkwWxxYRdkra1jjrMqmySv2YtoMsQWodS7iSQo4J3RH08tUqxWzTujZadJE8k5rpazWt4XSvSu950bgmP0VEoVMuW2f+alpj0sDBuJyu7Bjia6ZtSY2rbAOfXyzj0nIp/ei6a5bHKW2Da7GbaTvuLxFFp5YT/Me60jqwx6tNmjQcj+lbj3W5LRfbLMahbpPr+QsiX4bwVoceu77G58vpzfa5JU7Vu9sAkrXSchp5lE0if5Gy+NDyJGyhbBa3Eeuh1c5NDsF+85s04tK0102aWAg2LS8rUW4Wgi3fjibGsgSb1gx10bUaSbcmcJzYRT+eUaDcopeoT4PPm+w8uWfRnLufoB0H5T6fm3Tzn6N3tzxB87/DKeZZ9M8L1tK7nTFgPQfIDiZ1kkj5j2jPD8NUtUxu5ZhYTnEcqr3u/11LS2bPMellIQCf3D6lk8+KrAXK3XgnLWn/A3Wfk/6dY8lzX59S5y8X2nunN95Da3ZwujouZ4/T5FVlnA59Gdz1hH4dGek+zn1E7/5yGS0ssE4KlJsxy44tzck7fazZrfrXbVU6NvVTZPDqWVtE4zF1xC5iJ2nD/Xb28Rx2ml68/v26moisU3b3sr06wf1Zc63MgiOo68nnnLaM0zpsGVeKfr22Qj0EGQBdVh+HRFHmmtaBlU1s4HQQ4cPvW+aiJi7BtG6Tz2l9mONontnxSRu6nBBjtXqzssc2Mr+d7OX6FJnttz9GjRWRR+7f+/VS7OhhvTWuTxrB+sRWnmCv/CprijiNGQdJ2hkfwZ6maqNj3Q8f1wKgM+vvoVx+Dm3YFwAqQQAuApmxmjoMIYkjcedl5c/fdzxHZxxYzUTR16KJGvTH5V2q+ub2g2os0k/sRMw4jQNShL3fRr5CrPItk53rnHySx5qUd87P4vvCVt5Z9OMHl3lEnYtS1kruVHnj62fW2w1IP35RFiXxtbGEfkMHLuSdlDcXOVDV3uHf0Lx8gW7+yR+oTy0YqsaE59BVu9rpGJm1HaxtrI71sa2vnbbniBPtBOTIfWp51LFuk4+1fa1OnR5VnVQdeNeTsmt5dZ9pbSWu67b52LOX7csQVLXlAvLV/eljlk3L7enQ2DEgI2Xbcu3YOaHtLvhQY5G21HjDNkPdmetaNxoX5tjZUh9LP9G3P6ZEn1rHUR2Rv/W/J41gr7p075UgRezdqzX3Pb9O/e6eZ5YUcbl2NPH5RO/urUYp4rR7sDkanKgI9txB2vAdnxDDSRD9PnOQnvu/7OxlotnJxVHr4icPWqf+8R9oDbcXlVEANkBXhJgC9vRUtfQj/bo2w/b2rLaEePMSem7LQToTbhg6/Sqt5Eh9xjJ6teOsJfD3n3PpzJjcrDPhMdxJKzlqPSf9f49+d1iN5/PPKV1eIQdLjG23raWOU369SKdGB9ZBJFbZjjBz33mC9oi8xtEUAoctbf+Z9iz5XrQo8IgnRde+DJ+TJadAx2G9hLOyuhk/wep2tH2TZBk7ULGL1XO8cHJjSMgqekppPyAw1o0mqrjPoA2jnxTZFSHEePLlNDpTMpYtF8in5dHHodx6DNbePhlpDJRrJ2o3WpwKTgS7/tgEy2Gbuj8+Tl7n9qRtq9doIVJyYa7HVN4WYf9T4ffkEOza993jO6dpxJCnRLDlo8MsBFttlFmeYCf3HmzfliUmrbtyR0qEde7PfnoyMbnEwcmEYOeTdk47tDIEe+IlWsIbrf493GglbS6kHR3Kwe3+uY1Go4kXpH+5re8spg27XWpXyCkah3YKSYJNyqH6ZsdaUt46EWy4gOA+ZQx61S8keO7P9OoP4/R4ZoJ1tkvWU07L9J+09/gJNsXZKvLRkZh2ynyclFfjLbZrwpnq9lPGrslJ95loJ40odNt8nGYvtlu15WokWK99gxNNRj6ewzHq8YdjNmXNmCw2JF2cWi6an35/XDbsM1zkGRmW7zPlSvUxVkY3Rh6tY5krU+h7ggg2LWVLdO3Ir1w0KASbXo4+e9k8BysEm1bKPhtbXTtVR7BpHfG56PGibLuJQ4CX/+12v35nLXWmpBQ7lvN9vzm05n9ttDf0/qu0JjWCjR1u3/7f0GKOEvPLko+LGKCXJtiSqerPz9L+f7dkOGe5S3+e+4j2/4Q3ZunNUGoCn+6gjvWP0hxDpk6Wj3fRj/k3R4Tvuwg2ZaKZSZ0v47hdndLyxnKceWaxiSgXb0q7fyvlJAoIyEAi8vnP0Rm2Dy94frbQRqhpDtulyGtOEfO4nI20M7P6ENkU2Ublxf7BtcCBeg47QdTSt99PdL9eOUnPKavzjHVP1uBaYi4E1z35nNMW8vb6TMGM1ZvowRFHtGEnIDW3SIois2rKlSGRULa0cYg9rX7ie55aJ57uZKHscJbahyNOvz839hL1dH98bNqNIla/rikrC0pVJmwjJNjytpA5N3W+J41gx/7naySP38SP6ZRgtK7KBGufTa1AsK6d8RKst+M4Q7o4Cb7SQJJnN+PdurpsTGpx6k0iPnEk1qEmrxcovqdZuoykkYzMkr5V9271WETWRF8zltEe99yuOI9kGXnc5yx1/Mw+ypIoo1bZ0o44Vy1HdFxB3qiccxBpbUk/CVlkVy2n728WnQffaQRrCCPdeUbypJFDeC5yaq7PRF+yILDXxXlL9kKP1XPMUburqcMcC45i3Hk60f0qMvTajEhV9KPaVHVSx59y3Tp815bCRNhnWntadrtzVhYLKvPgsieRjkIZIh1ZGaJyERnZhZ+WRx+zXEaOhO6kvS1lXsqg7bqYdjyrI+9wHquxKdksluNroWyh3uz1tF3EggnXrx5PiNdg8RHpQHRtdn/HMoUytPrvBhPsN+gL9fxo9Bzs175G/rOkpcuZOrlvmAh2MKeepQ3ate1V144mWHkmNib7b9LoN/6OPg/a17J7ZRtCsB/Rq4v4fqSQjwBafXfsopV3uJQj77Z97CV67kGeqOLEZNLNoryJWu3bhNZseU9tspEyzmk50IcTMUpV/0+ZyJJ3CMtuWt7RfO9aele9eEI7ONP+jDk0f/GvvTJjbleu3fGsZFLOVNrRzi2chNXIa+o4h5nWlvRTkmDZkbz/Eq28ze4gtunuffaRhjSHY5x1HQg24cAUJnBNbb5rRb0wicr8bQ35mYTT5k84J6fr7wYTbLYUqia+qXhcNcj2rzXpU3+3btYJJ+Q5zgkrkVqJVHXVY5oo559FXkew+QUuzdsoGc99Sh2r7A7pOKLMak+UbzqsjRcvBn9x9GYXdfHv5h9v6y0IJlqnINgMEeh4Sb8649brtYj1IVhJ/9rXIja/k88kr+zSlshdRcrV2aqyPvxIeJyLnfE6dNRvugjXpGEFf60UvbqMDKLX8j4ABNt0BFveYNU7/voQbPX91UvuiW1n6OCWONXeQILll/1vkB3TILqmI7qpjnOMb2L9iugbBDtlCXZyACXAwjf0DwwAA9MdAyBYECyiCUSUwAAwAAw0AAOZCHasrc3s5h3vvcjpWJ91N91Xcxg/IhpgABiYThjIRrCPPw6CrTHiHXv8cRBsA1aI02myYqwgJ2CgtTCQjWDZQTJRIJKteqFhIleQKxYXWFwAA8DAtMNAdoIFSKYdSLBqbq1VM+wFewEDzYGBBMH29PSY6AwGag4DwQ6wAzAADAADrYkBj2CHhoaoWCzS6Le+RaOfpvwFF0SviF6BAWAAGAAGgIGqMBAR7OjoKA0PD1Nvby9dfvBBGt24saoGsLJqzZUV7Aa7AQPAADDQWAx4BHv58mUaGBigi4cO2Sh240ZEslipYaEFDAADwAAwUAMGIoIdGxujkZERE8VevHjRkKyJZDldXOOjKaiHP3YADAADwAAwMF0x4BEsp4mFZDmS7evrM/dkeeMTf7q7u/GBDoABYAAYAAaAgSow8P8B5exwJTfFw2AAAAAASUVORK5CYII=;" vertex="1" parent="Jmml3LspPb3dAqlUMCSL-10">
          <mxGeometry x="22.39" y="40" width="264.18" height="150" as="geometry" />
        </mxCell>
        <mxCell id="d1NsQLXCly2csUVJhQxa-15" style="edgeStyle=orthogonalEdgeStyle;rounded=0;orthogonalLoop=1;jettySize=auto;html=1;exitX=1;exitY=0.5;exitDx=0;exitDy=0;endArrow=none;endFill=0;startArrow=classic;startFill=1;" edge="1" parent="Jmml3LspPb3dAqlUMCSL-1" source="d1NsQLXCly2csUVJhQxa-4">
          <mxGeometry relative="1" as="geometry">
            <mxPoint x="430" y="140" as="targetPoint" />
          </mxGeometry>
        </mxCell>
        <mxCell id="d1NsQLXCly2csUVJhQxa-4" value="ImageController" style="swimlane;whiteSpace=wrap;html=1;" vertex="1" parent="Jmml3LspPb3dAqlUMCSL-1">
          <mxGeometry x="45" y="280" width="305" height="150" as="geometry" />
        </mxCell>
        <mxCell id="d1NsQLXCly2csUVJhQxa-6" value="" style="shape=image;verticalLabelPosition=bottom;labelBackgroundColor=default;verticalAlign=top;aspect=fixed;imageAspect=0;image=data:image/png,iVBORw0KGgoAAAANSUhEUgAAAeYAAACjCAYAAABfcb2kAAAgAElEQVR4Ae19j5NU1bXu/bOs29GiU14I8arVsUAfGoNJhUApvCQjV2IualS8mSE8IU7yMAYjQSNEKRFRiGYMgigqMopBVB4Cw6+ZageGzCAzg7Berb33Omftfc7p6e7p7jk9fFPV1afP2T/WXuvb69trnX3O/Nv4+DjhAx0AA8AAMAAMAAP5wMC/wRD5MATsADsAA8AAMAAMMAZSifmt3e8SPtABMAAMAAPAADDQegykEjNWbVi1AQPAADAADAADU4MBEDPusWOPATAADAADwECOMJBJzGNjY8Sf0dFRfKADYAAYAAaAAWCgRRhIELOQ8cWLF+nChQs0MjJCw8PD+EAHwAAwAAwAA8BACzDgEbOQMhPy+fPn6ezZs1Qul2lgYMB8+vv7CR/oABgABoABYAAYaB4GPGLmtDWT8rlz52jf6S9o+Wcv0U37u2n2vtX4QAfAADAADAADwEALMBARM0fLnL7mSJlJmQn5L6f20rHhMvV/PYQPdAAMAAPAADAADLQAAx4xc7Q8ODhoImUmZRAyFiTAADAADAADwEBrMRARM6exeaMX31PmaBmRcmsNAeBD38AAMAAMAAOMAY+Yefc1b/Tie8oACAACDAADwAAwAAy0HgMJYuaddiDm1hsC4IfOgQFgABgABhgDNRPzyiM7qNT7O+zMq3JnHuuKdYYJhwkHDAADwAAwUA0GaiJmJhg8OlXfo2MgZ0zIaiYkygAnwAAwUBMxI1Kuj5R5McO6w4TDhAMGgAFgABiYCAM1ETOi5fqJGfftMRknmoy4DowAA8AAYwDEXOW94kYsSjDpMOmAAWAAGAAGJsIAiBnEjBR7C97kM9FExHU4a2AAGBAMgJhBzCBmEDMwAAwAAznCAIgZxIwJmaMJKStmfCN6AgauXgyAmEHMIOYJiPmzTUupUCxFn8WbDk+5zt5aWaLCyneNHPp4cs78MD23yI3TtT259upwrHu6qVDsprcmsEltctlxWbvp4zrkS5WrGW02Sja0UxtW8qGvKSfmp/41Sul/g7QjJM0TfTQSFr74z/Rnq8Oy3/TRU1F7u+ijb8KG9O+UvqO69e/Mrh8gZXrjkblUKN5PL5xqDnA+e+l+mlmcS99f8y6dSHU+cb8nejppRrFEHS8ftwRlnGlMXDGJLaXnjsb16h//1LVhSM8jineps1iiRpDzZAhV19XHk9JxU0ixRts1RQZNnPq4Rtky50Uz2myUbGhnUnMi0+bN1evUE/PQRc2IwbEiyK8Gg2v6pypnCPSf1Kcvy3FEzruo95KcTPv+KrkomEpi/nwT/bBYohmP9ExImvWCsHpi/pSemV+iwqxOemPQgXO6EvPRzbS4mLK4aBB5TIZQdV19XK/9TT0e16LN9NkUOaNIBm8h1AgHCOKcFC6mEg9Xad+5Iebhwdfp29t/5T6v0/5xJsxR6j3BEWpMtH65/XTc8erwv3bFkbOQ+Mh+156UG6WPTHuP08w3w74u0v5Dcq6TZjWAiMNHrOqdHO+suZ0Kxbvpmc8b4aQm2cYHa6lULNEPN3yaks610WTjU5GTlLnOyW1S2NUQlSFwyRgoInfE3rlSpcJdithLj/M5U7abOjlFXSxR5x47ZkO6kkZX6WVNxvqYMVapzuKV3bSY2wvH5S2uZAxiT1+m/q8t0XWu5LRznFKP8Z0kQi2jPd4cp801EQeLHk9PFWUOshjaJou6qXORXNeyuWPRidGzTqPb6zYDtJSMHUMZDLZUm87mz21yunHZFT0OL9ui5UzosnL/uk3PnkGbgqXYPlMzn9B/9XrPDzEPKWLdJxHtReo9vppmK6K9fs/jMQHvW0X/cehLGjbkrKLmY8fcOaK+r5jYV9F/GNJ/jGa+H6aig76aQMhC0HUB89QOWjarRIWfb6UjmmCCyVcozqVbF3TScx+fdoTpJvWiTfTGy530w5s5FT6XbrhnLb3RFwPEm9wJxxCXs7Ifpy33VkqpiyPXzm3IkU6JHljzNC38bokK372fXti9mTr4eNYC6t5bNjInZPnufFr40GbaV1Zy9L9Lz9x3N93AOjGONP6OHNDwcXpjzf10K7fPmYab76ZHNh2oOdugySTbdnbM0rcdgxu/2EgI1f2Wsl777pp22qatiAhsP3Jd19XHfh1FGBFhB7bRmPJI0a/bb64JYQu2sqLroK707fRg5A0XHzJOLYM+dosBua/e/zXrQ+QZIiufjC3o37STTczxQtKNy8np69JhW+TUenOyGduENvf6HiIPH7LAcYswuziLx1Sxf083bjFm5LZjEIzJgq+x9+zVfPT0gPPZfqI23eSGmNMSyjR+jJ58fzU9dd7ehx4+t1ORsiPY9/9BvSa6Vunn6JxuVRG3R775JuYDG+6mQvF26v4gMKw4gICcCrO66a1hLuucTHidf8/fRAfchLKOIia32PEF/XF5l1IvrdmXEi1zeee8dATE9bJkFdkesin6hCzu+gwhtq9P05b7eWGwNMoeHNjA0ehcemC7LEhO02sPcRk1JnM8lxa/WNumLU14mRMucJCiA+MYzbhjR+tdC8gqdMpiPyFi7l87ai1bfBw4ZdY9y+fIJC6XYlspK7ZLyG7btvLo47S2ktd13+ZYE5zuS+lT1zH6V9dCe1js6AWR1ruWJ+vYjiPuU5ez17T+/f5VWT2WCPtKlgpjSFv8VLK/vhYTsJVFbO7LmWYrnMujjvJLzONf0v99cyV9Z99qesrdhx72omqJfIVYFTHvs6nq1xI7xSSVLXX5W+q76NwjbV1u8sc1A2B4H3Xf7BNpZhtD++gPtzMZiRNwE7Q4lxav20dHmKz7d1EntxeVUZPSOIy0tGRcZuKU+gTEvGgTHSj30CNMlHO66a1ypShkiE7sf5q+z2UjJ36attzL8t9PL7hNZQlidouHwvy19JbbKHdk5+Mm/R63E48pU58BEWaVSzprO6bJE7Nqhx18IE9MIDpaEv2HixJLWLpO6ng0aehj078iHx0hOtn89nRZK7vuWx/beiy3w23Ub7KNtKhYFmCLF/ECzRFz1EZsZ+4zuahI9hHLVln/meOtkZhNf7KIXLRU7Wmo1L+VW8Yef4dz3+Egmj+xPnz5cT5v+sgNMfv3jn9F33akzGng7wx8ZUPfr1N2YJ/oc2lrTcyWRGftknvGco+ZaPi8Tpnnm5iPvHy/iQYfeV2iQTWBhg/TG394kBZ+L4wOw8kpv7muTGh9zrVpnFkFYj61lTo4Leyi23QgCzFIStG1bZyVOEZXxkTB7lgcx9Fd9If7/neUgo4cjlz/eoiO9HTSDbNupxtUmnrZM+/ahQeThIxDnJ3+Vu2ky6/0y22FTlZISJ9PkIByqLqcqauutSpiFpnD/tT5SBd6LAnZNYnp40Bnpt3k9Zjw3EJC20L3pWTQdYyM6ppP0mL3NouY9bhZb97vpA71IpB140XMafY05yzmqiubZkuci+ZHpo4br6P8EHNqNOyi1Hc/jjZ5jehNXmpTGI18HG3Ykkew4rKr6MlBu/s7GXXnNWJ2u59vXkvvmNS0b/y3VjIh306dO+392ROf91BnasQck/CR/Rtosbk3+yBt6ffbiwgtShv71zNT6h5YHdFK5CLXjMMRR+LKhMQ8/C51smz/+bjd7T1cpgM9jwcRs9PJ/VvpsyFfvmjy7Leb0wqLnqZ3TlndRNdEnhq+bUSjFxrWYcYpf59sK6dU/bIe8XhO2Y5NO2JJg4uD1XX1sV/HJ0FdLlUnmvjCqNhcEywlSSNsz/QVka+2uZNJImRZMEhZLYM+lkWl4DNFnihiDst6+NOy62Orc60jX5duDCKnhyHVTmjH8Lcek5NL7gebvpVeKvav25Fsipl3PsZkMS59hHbC7ww/4tm39WXag5h589bJsr5hHByX6bVdq6L7z985Gm/+8gtepN6jevNYfiNmeVY4ffdzmV57KExXym/feUZRp4ocb/0/8qyydShpZWInN0T9gz30CJOmujftTWjjJKR//e1k8RyjdtLK2XEfSkZPpsgZutR+UG7GzUup83W5f3yYXrgnzCJYmYTUPNmrmIDGQao+E+248VmZRf9hBMSTO3CaojceX+jAnVzWWTudCikJmbnfmkx4bF4dtUgKyyX0EDh7kVdsETt3RURZ+vN00k3P8UtaPHm7zfPgtm218Alk8HQf4YB1qbG7lJ7bEz7a5rBl7GZ3u1u7adn1sXW+vo50H24MngzisFU7oR3D38H4tK069wT48MaY7N/TjSJ0G3mreahwk7B5lv1wPmMfjdi8ud9tQsyrafa7nfTtaAe2olvzSFTweNP7K+n6RFl+HKpddmUfpxd+HjwrHE6U/7eDHpl/u3nRR+G786nj11vpD/fzZBRiEKcyl2a4Hcwzv3c/db58IE77ehNfTWTnzGQnZ5RS78mIQIVgFHl5JOWctHWMzmEaZ+GOnbM7sE12j5fIyvo0PcBtKmd4IHgLl5CG9zhZ+QC98Ot4V7aUSRBqqFP8bokz8smvuQ6ukURkiHAKSW6q+2+kLtFWZdxPOTF/Z89j5llj/zEol8ION2Ix4UbPOrv7xypSlseSzHeibBopcz/yTHPW9QxZQtmq+F01GPevpVuLJcre/VzZqLYfIWYh6mrqpJThDWhzSlTISKlXPaZGkN7HTxu9FHgTmaT3h4/TFrMgmUuP702RvxH9oo2GEna7EDPLGS/m7CIy/t18rE11/y2d25hj3hybcmL2yLQKcmvn8tUBvVGv32wMMUtKPXr95lROILl//PPNdEDuMZ/aRZ28cJiTfi++Op0338lCjljH7ULMU54S9m4HVNiYOZVzEn17hNqoeQ5ibuFioFFGq66dxhBzdX3FTrfZ5Q9sf5w6bnMpfPPykAUmje+9hATOoinOotm2Rfutm0fQdb51DWKetsScb+DBMcA+wAAwAAykYwDEDGJGdIUIGxgABoCBHGEAxAxixoTM0YREBJEeQUAv0MvVhIGaiLnU+7voWeF23oQ1FbKz7q4mYGGscKTAADAADNSHgZqIeeWRHSDmOiNs1h1AWh9IoTfoDRgABq4mDNREzKwYJhhEztU/28y6AinDqVxNTgVjBd6BgclhoGZihsInp3DoD/oDBoABYAAYqISBBDEPDAyYdHWlSrgGUAEDwAAwAAwAA83BgEfMIyMjVC6X6ab93XRsOOO9yNjBinvFwAAwAAwAA8BA0zAQEfPY2BhduHCBBgcHaflnL9FfTu1tWqdYZTVnlQW9Qq/AADAADLQ/BjxivnjxIp0/f572nf7CRM1Mzoic29/ImKiwITAADAAD7YOBiJjHx8dpdHTURM3nzp0z5MyRM6e1p+K5X/RZ/c5v6Aq6AgaAAWBg+mDAI2ZOZws5c+R89uxZc8+ZN4Txp7+/Hx/oABgABoABYAAYaCIGPGLmqFnImdPafM+ZN4QNDw/jAx0AA8AAMAAMAAMtwECCmJmchaCFpDmKxgc6AAaAAWAAGAAGmo+BTGIWgsa3XahAD9ADMAAMAAPAQCswAGJ2GYJWKBt9YFIDA8AAMAAMTIQBEDOI2dy6mAgouA5nAgwAA8BAazAAYgYxg5iBAWAAGAAGcoQBEHOOjIHVaGtWo9Az9AwMAAN5xgCIGcSMlTIwAAwAA8BAjjAAYs6RMfK8goNsiDCAAWAAGGgNBkDMIGaslIEBYAAYAAZyhAEQc46MgdVoa1aj0DP0DAwAA3nGQCYx81u/8Oav5r/hBW/RgY6BAWAAGAAGNAYSxCxkjHdl4/3geEc6MAAMAAPAQOsx4BGzkDL/8wr8dyn8Jy38NzFgABgABoCB1mPAI2YOpZmU+f8xf3RsiFa9fYl+svUK3fUSPtABMAAMAAPAADDQCgxExMzRMqevOVJmUmZCfvnQZTo5dInKw/hAB8AAMAAMAAPAQCsw4BEzR8uDg4MmUmZSboUA6ANABwaAAWAAGAAGYgxExMxp7JGRESqXyyZaRqQcKwmAgS6AAWAAGAAGWoUBj5h5993AwIC5p9wqAdAPwA4MAAPAADAADMQYSBAz78Djm9tQUqwk6AK6AAaAAWAAGGgVBmom5qc++IYWYqd21TvVWVess1YZFP3AeQADwAAw0N4YqImYmWBasVV8OvYBcm7viQJHB/sBA8BAqzBQEzEjUq7/GT7WXauMin7gQIABYAAYaF8M1ETM0zGSbeWYMFHad6LAdrAdMAAMtAoDIOYWvtWsVUZFP3AgwAAwAAy0LwZAzCBmpNjxZjtgABgABnKEARAziBkTMkcTElFO+0Y5sB1s1ygMgJhBzCBmEDMwAAwAAznCAIgZxIwJOcGEPPz8fVQolqLPkudPTbnOdneVqNDVa+TQx5NbsZ+i5xe6cbq2J9deSgS1ey0Vimtp9wQ6r7ffxukilr0ZbdY7PtSL7TKddZFrYv50nBJ/uzwiJTqdKBGfuFC2jzdtLMfn0o5OH6//MahadnXXD6SvqefhuVQoLqfNfc0B5uHNy2lmcS59f3UvnZ7AaZ5+YxXNKJbo3i1lS1DG2cbEFZPYffT8kebIW78ua5PHOGWPSHqpq1iiRpDzZBy+rquPJ6WXJpOmka3JfTRMF2oONKPNSdlJyYZ2apvP7aKvfBLzAaILaQzqzn16QIj0GzpVodyFgcvmhSgbB65UKEV06qi019zvukFx6CX6UbFEMx5+e0LSrLeP6on5GK2fX6LCrFXUU3aTYroS85FttKSYsrhoELlMxuHruvq4XvubejyuhdvocDMdf4N0N6lxNnN8aHvKs0nTARu5JOYoUh66QLeuO+k+F+ik0Ou/yL2BTIj5Er0ZlZPyJ2neJvumsvmbvora2XD6smll5PRQdO6OF5pLyBJV1wuY91bfQYXiPbT+UA5Wh++to1KxRD/687GUCWijyWamKuvVYT31TAq7GqIyBC4ZA0Xkjti7ulQq3KWIvfQ4nzNl11IXp6iLJerabW1tSFfS6Cq9rMlYH/M4K9VZ0rWWlnB74bi8xZWMQezpy1Qetinvri5OS8cpdU/Hqe1dorIj5ufV7QE/+5Dep9FXxvhlzNyO1oU9XmsyHDaLI+NKWVB22XKidz2WZJvb4pS/yaZomXWaXt0aMDbU13w7WV2q61mYCu0b2hELgxS/lAO/WaNd8kfMB67YaHlslDb8ZVS9AnSU7tg7SiPeeSHmy/SWl+LOJlqJniWaFtJsxbee7FUf9/2DfjGrRIWf/Y2OaeN6E5cd51y6bcEqen7/kAOmcwoLX6KeLavoRzdzKnwu3XD3Ouo5GgPVI4gsJxv1W6at91ZKqYuDUg6G6zpZH1y9gRbNLlFh9nLavHMb3cvHs35Cv3/nayNzQpbZd9GiB7fR/v5Y3vKpXlr/X/fQDawT4+zi78ipDpWpZ/Vyuo3b50zDzffQiucP15xt0A452152zNK3HYMbv9hICMX9lrJe++6aJinTVuR4bT9yXdfVx34diwGvjpeWV3plO3nRrF/XXhNiE2xlRdcsq5R17co4HGGLTGntpl4z+hFc9VLXwvtoSTSWuD+tC3Os5DC/RY7hNLvFCyJt7+w2nR48OeLbHMYWYnu3mPHHJuNJb0dw4tmF9ReNwZJ71GY0TwO74nzbkXX+iPmYi2j7x2l+SLabL9C8DRfUeSFmCaX97zjlHRN1uxHzwT/fQ4XiHfT794LJJk4/IKfCrLW0e4jLymSPiSsisvkv0UE3WS2RqDKRIwn64/IupV5afTAD6NbZJSLmLFlF9gdtij4hi7s+I5JpiLb+ghcG90XZg4N/5mh0Lj34qixIhmjHg1xGjckcz6Ulf61t05Z2yNpRe8cembHOlMM341YEpa9J5CNjS5S19tNOV5Ouli0+tnUih842U448LpdiWykrJFNRnqRsnk7cOGVzmnct1JfuRx8bfOp+YvI1C72uXtrd5XSbMcZwvFp/HtmZvpTdzO9YR7odfczj8n9reeP6dvy2fbGnXy9YFKnx2LrKrkZ/6QsIT8/BGHAttEe+f+ePmI9aYqZ/xWR613GfcPmX3QRWiZiv0MGPVRuO5NuKmIcO0u9vLlFBEWnmBBs8SH+cx2QkRGAnM5PWkj8epGNM1qfepy5uLyqjwOkmfKozdZN84pS6dT6ZxLzwJTrY/zatYKKcs5Z297vyKgLQ4zu9bwN9n8tG14do670s/3La7DaVJYjZLR4K89fRbrdR7tibT5j0e9yOGncFB+Y58oxyyTLKwSeIRl0LnfoEZVkvui/t2ONj0X+4KLGRWVwuY/wGAy6K08dm7Jp09HFGW0LOskCSBUjYrh53eC2IMll+JjbWQ9o360iPUR+H+tO6tJjzbWPP2bHpdvRx2J8shoV8LfmLLe6jJQslmk7Rnxq7kU30pr7T2wVJa1tNl+P8EfNHl2iEmXfsMm2UiFnIOuJnSV0LMafdY/6K7tzc3sR8bMtyEw2u2CHRoHKCQ6eoZ+3DtOh7YXQYErP85rpC1vqca9M4hoz7heyY+/5G93Ja2EW36RNAiEFSdK5t43zFKbkyxlG7YyHeI+/TH//rZ1EKOop65frwJTr2xiq6YdYddINKU//iT7124cFyyjiUQ0trJ11+pV9uS5OGISc9HqdD5VBtm8rBJ+qrawGJJPtKOm9NJpog4mNbx4uYldxxuWCcUkaPJSG7lkcfZ7QlbfK3s7+RS/cRXXO6rNins62OlLl8F9/vjfGsx6iP2TZaf82PmEMd+b9D2Tx5WEcK85Wwakk8mG9a9zjOyO5Vgdsp1F3+iHnzOP1zzDGwbPJ64XywASwkZvmdJOLw3nH7RMxu9/PN6+g9k5r2gbS7iwn5Dup6096fPX3obepKjZhjp3Vs3yZaYu7NPkxbT/ntRYQmkU0AysyUulfOEa2kQ+Wac8x2xe/KhMQ81EtdLNt/PmF3ew99TQffeCKImJ1OfvE3OjwYyC997bOb0woLN9B7fVY3lRzbRNeMA/XGYx1snFnwydZzlAmi8ct6zjlRNiASF4FK1KTr6mOPfIT8nZPX5VLH7ZGmTyQWH4Kl4JroXr4TY+Fxu7peH0LaGe2asnItLrtkoRCRu9esSEyPUR/zeH3d+LawdkuPPnU7+pjb9H9rvQQ4MWORxaksIGUcrmyEM182vbDxx+DaUeNPtavYBd9tQ9L5I+aXvqE7943aqDmKkIODoXH6gYmmJWIOrstPIXaJvF+6Qu1CzPKscPru569px4OSIgu/xZHJZA+vl+i2VfKscnYZLx1dfptWMGlmpdSd04ki0yhadbJUQ8zcR1QvkDlyPC61H5SbcfN91LVD7h+fos13h1kE256QWq3OS5y2jC/RjhufvS76j4kkfpY7cLiiNx5fgszswsM4fhmvWjRpQtDHEVlIncjZhySSsrAx8ghZ8HUrr4w7jsQtbhJ60I5fxubkiMqGfSTGndUny+PwGuEhKYfWhT5mvaSSWiTfNrN7Ox5jrB/djj6OdB3ZJZBH68BE+n5GyrRl+r+Pnn8+ePGKhylF6LIYiOyr8Kb1j+O2IeE0f5RDYr5Cd/Emr3VDceQsREsuZR3t1p6AmM/bx6V01NwexFymzT8LnhUOJ9oX/6AV8+8wL/oozL6L7v2fv9Eff8EEJBPVObHiXJrhdjDP/N5y6tpyOE77iqOLJrkmxNhBRyn1NzIiUO2AvLZqIObhS3Rwq+weL5GVdQM9yO1FjvgSHVSP2Qhh2G/1OFn/Ydr8P/GubCkXkUOoS/xuayeW5thqP8cLApk7MSnX3k6ddXkOKZy3rF9gP5fYzycxu2j4zg3xM8n2eebzLlKWlPUo3ZHy/HL07HNE4FL+CskzzfKMsybtZh9XPdn2raPbiiXK3v1czeQXYp6ks+ENaHNKVMhIqVc9pkY4gP0bjF4KvIlM0vtDZdpqFiRzafU71egFZVpqs0bYvRltmIg0XnzarEj8u9k6Mv0FkXZ8ewQYbbb+895+jok5JtNmE2ar2q8ODI16/WZjiFlS6tHrN5vhJKttU+4f/2wbHZR7zH3vUxcvHOak34uvTudwhFejnuJUss40tQoLfsoe0XKr9N4e/YCY1f3nZhN0a51fY4i5tTJPPGkOvvoE3XurS+Gbl4f8xKTxvZeQVEv0KJfLNF7eMAd5Jp6X0FFjdQRinrbE3FigYOJBn8AAMAAMtAYDIGYQM6ImRM7AADAADOQIAyBmEDMmZI4mJCKS1kQk0DP0nGcM1ETMC7dOvw1Zzb6vLO2z7vIMBMgGRwUMAAPAQD4wUBMxP/VB8rlgIR58V160sO4A+nyAHnaAHYABYCDPGKiJmHkgTDCInCuTsF6ksK5AynACeXYCkA34BAbyhYGaiRkGzJcBYQ/YAxgABoCB6YWBBDEPDAwQR3ww9PQyNOwJewIDwAAw0B4Y8Ih5ZGSEyuUy/WTrFToprzzEjlUsUoABYAAYAAaAgZZhICLmsbExunDhAg0ODtKqty/Ry4cut0wIrOLaYxUHO8FOwAAwAAw0HwMeMV+8eJHOnz9PHx0bMlEzkzMi5+YbAUCHjoEBYAAYAAYEAxExj4+P0+joqImaz507Z8iZI2dOa+tdxjiGPoABYAAYAAaAgeZhwCNmTmcLOXPkfPbsWXPPmTeE8ae/vx8f6AAYAAaAAWAAGGgiBjxi5qhZyJnT2nzPmTeEDQ8P4wMdAAPAADAADAADLcBAgpiZnIWghaQ5isYHOgAGgAFgABgABpqPgUxiFoLGt12oQA/QAzAADAADwEArMABidhmCVigbfWBSAwPAADAADEyEARAziNncupgIKLgOZwIMAAPAQGswAGIGMYOYgQFgABgABnKEARBzjoyB1WhrVqPQM/QMDAADecYAiBnEjJUyMAAMAAPAQI4wAGLOkTHyvIKDbIgwgAFgABhoDQZAzCBmrJSBAWAAGAAGcoQBEHOOjIHVaGtWo9Az9AwMAAN5xkAmMfNbv/Dmr+a/4QVv0YGOgQFgABgABjQGEsQsZIx3ZeP94HhHOrYAe0gAABDySURBVDAADAADwEDrMeARs5Ay//MK/Hcp/Cct/DcxYAAYAAaAgdZjwCNmDqWZlPn/MZ977z26uHQpjV1/PY1ddx0+0AEwAAwAA8AAMNACDETEzNEyp685UmZSNoS8fj2NffkljZ85gw90AAwAA8AAMAAMtAADHjFztDw4OGgj5fXrYYAWGACLHiz6gAFgABgABjQGImLmNPbIyAiVy2UbLSNSxsIECxNgABgABoCBlmPAI2befTcwMGDuIWj2xjFWc8AAMAAMAAPAQGswkCBm3oHHm71ggNYYAHqGnoEBYAAYAAY0Bmon5kcfpfFZs7Azr8qdeayrcdYZ0kHQATAADAADwEAVGKiNmB99FIRcJSGHj5iBnLEixuIMGAAGgIFqMFAbMSNSrnthYiLnKlZK1RgNZTC5gQFgABiYvhioiZjDKBC/a3vxCibS9J1IsC1sCwwAA43CAIi5ztR0PYuSRhkN7cABAAPAADAwfTEAYgYxYzMGbjEAA8AAMJAjDICYQcyYkDmakIiCpm8UBNvCttViAMQMYgYxg5iBAWAAGMgRBkDMIGZMyAkm5MiejbTyznlULJao45lPGq6v/mc6qFAs0azSMnp25+T/aYy0x23ypxkyV7vyl3K9K0pUWLGTxs98QlsWNEom25YZp2m7cRGZ0eGCjdQ/ATbGX19NheJq6p2oXHA91kejZG6kXhslk7TTKNl20ppiida8Lu3631XbLLCFYDRP300m5m10hdL/rrymdzRnlzO19//OPKZ0+bhty69bezvf7B9OF8qdvfLph5Wve7Lr/isf12/4E7R3+RwqFJfR9kM+GOtv02+n/y/LaFZxDs3v2kkjEwB35JXHDEkt2/i5JSnjnCwJCBnY7w7acsDvp1HyNradCvo9up1WzozHlkZytejOOnIhKasbj0hn/op6vqhfZ8bhe0RhnVma3LXqcDJkEtdtlJM+Q/WSYjXjrtrJV0vMBzZSRzGeD7E+6re1P44G6nWC+e/3W438jZINxJwaFdS+E3kbfVOJ4hzhjl1XudzlDy0xjx+zjX3zahYBVtfOpQ8rE/M3n35IlyvInd1/llz2fO2AdqD/8FlaUCxRcfn2CUmz3j6qJ5de+uudJSrMfIz2HnXytTsxV9KvG9stD22nsyfTnVD1uhMy8YnZ2Ozkl7R3xQ9MhJsVEUxo28D5R+WrJY8JHPJkyCSu2ygn7XRZTVQ7wbgiPalyzSbmtD6n77lG2RzE3GBiPkrD11xDx+TzylFHe8N0uZtJSwg1KOfKn/mWI7aqiblyOxe/9e+RLGf3WZK+vO+30bmvfuuIefgDOisyq++vrq1MwFkLmHon3sGueVQoLqK/fphODPW2W1e9nd10S7FEC57qTcGInTj1pPbqkkU50snUr6hfR8x1k2Uooyxi0lKvk+yrajIxBC5ZgDiKG3fEvmaFTa3rFLEX1bPspuxqWsMpapVeNATsUug2dW0xW4mYK9XpWLGaOri9kIBFj6YvGYPgz5dJ0udrVnDaOWVRZGxkyUMyPUYHqk9v/Op8GLWnl9NyWVkT+pBxmvH4qXGtHzsG/7rFviY/Od5oUr9mTCyztrsegz6f0E+devFwnyEPl3E4im8F2LLp8y0k5sqyTcYnTHXdpqeybcR8lMb1vdxrCzTsSPayiX5jYvbK6Tr8jzVqIOZK7WjilOhZonJz7Qkh5g/pUiCDrlvrcV3GPrSVHuBU6pIX6awGeziZinNo3o8eoy175B6lA+2CZ2nvxsdowU2cCp9DNy7spr0HY4L3HEliUsblrOyfU89PK6XUxQEFjsPJuqLrSVo8u0SF2cto+46NtIyPZ/6Y1vWcMCSfkGX2D2jxLzfS4SNKji920l87FtGNKr1snam693Tyc9rbtYzmcfucabhpEa185oP0bEOWfkXXFcgyIW8a2R75gLY/vIzmG/2XqDiT9ZdBDtLXDjVekaOK79jZV6rvOzc7BmcvwZSMw/0WJ+m1767pFLlpK3L4th+5HtcVJ23v1ft1/GuWkAIsaT0Yfcl1v64lTCFsmQvZ94x9ORyOZSxeP2coHotkQJwMlcoZfYk8ug0nW3T7wf0WG3hthmW1ne01q++wXDAez662rNhYFmdyC6puvWg7uX0FhSiV7+QzY0zrX2yqx8fHKdgVG7lriQWcJ0fYXn5/Tw0xX3cdjbp08hWTzhZiTssfS1RdCzFXbkcTakViTmuGjtHlOsm6HmLue2oRFYrzaN3OAERucgkpRd8zV1OvSbnK5JTISH3f+Sz1OcCaiWdW6e66OIQ0QLuU7y1de1Ki5XjiJCLmLFml31/aFH1CFne9GMn0JfUsZWLriLIHfU9xdDeHVmyWBcmXtOuXjvykffM9hzo2JDduZeqXx8/p5Yc4WzGP1u0K9H/mDCXkjeR0ZU/uoXW3KL1recKy3N/7f6L5xRLd8tDfM9PmlTDkEUaa/fic5+hjmxnHHJBH6Ai99hNlLd6EiFlO7dTjurpc4JRFPuds4zpJ3Rs96LFUlEf3mdZW8nooux6XF+UpGVjezHKBfPHYkn3H1zSBO7lVfz4WdDv6mOuFv32C89ox7csCIqyXtGnmeD382XZ0BkXj0OjazQd97Mll2tNyV5YtWTfN7vk9N2XE7BNiZWK+9EStqew0Rh0maWdyxBxE/zWQdM1gYcd+U4kKikgz2+jbQ8/+LyYBf1IxaXX8fo919F/8ndZwe1EZBUwzITMiOTfJKqZ81cTJJOYFz1Lfke20kgnqltXUeyRYyXuT+QyN7HrSEFW8Cv6Sen7K8i+j7W5TWYKY3eKhcGc39bqNcmdf/Y1Jv8ftuHFX0K9xEI7Qb/zpRurLuL9s7JGhu5Etj9noeMGTdFA27WWUtXb9hHqW/dhsrOOFluf0At2k4UCTSdp1Ppcso5xdQB61EbNqx8mq+4rJRjtUZ3+9YDHHNmKK6yicaj0YXaZHqz4Z6T7T2krKbojDLBAcqSRkdPMskmGCcoFu47ElZat0TROab2Pdjj7m8Ya//fGa/mR8CzrUJjW/nI8f22YUEEj9NN+S6D9IYRvdxDaPondta3Os5dHHzqZsiyiCTrNz+5ybMmL+xqWlLwWpbO9etLmv++805O7p1pLKrtRO1cSceo+5QMM1kLHuy59IE4Pk7MZlJhpcuUWiQVXn5Ce097f/TYtLYXQYErP85roymfQ512ZFwjhD44depGWcFnbRbfpY7GTJImZLNK6MWSG7Y5lMB/5Oz3YsjlLQ0aSX62fO0NlXHqMbZ86jG1Wa+oG1O+MIU8YROQoVsap2WP5K+m0EMUsbHsGKfGkR88lPaPtP7WNZ9RBzmIaMbKRJwfSvU4XKwelyCUcYRG+JsqHz9xcB6WRj62Q54riOwr121nosFeVJyhbpxrSXvB4uKjwbZsjA8maWC+SLx5bsO74W6Jz71WPWcnjkF7YZ/q5gc0/OsF7SppnjzZRN+xvBoe1nzessl5xLs7mS2xuvLatt5ts3ra18n5saYu7+0D1GdZRGDelKxFw5Gq2FmNv/HrPb/XxTNx1MidZ6VzAhz6M1r9r7syMfbqc1qRFzTMJnd/2JOsy92f9OPpJTiTDOnKGKKd9oEtqJUxcxn9xJa1i2G35jd3ufPEF9r/wmiJidTpa+SP19GRNrl92cVjBRqtVN+iStrF9TJ9opPYfW9mT0FznLZLahf4PdRBWlpr/4gLYstTuvvbSe6M/JHpWX8zV8G6fuOTfr9OL+tHNzjlbKe06Zx+uX1YSRtgjwHaOtK447rus7e7+OIyK3gIrrZOjeIym/XUtggv3gWoo+jRyiB1nAykLO6yfQmb6mjyU7IW0Guo3HlpQtvhYSsS2bmF9mPLodfcy6C38ruxq54v0Zpm8V9fr2sfWiqLTSeD0dh3K732pxavWfssnPa0fJHeo3tJlXLwM/OS7TImJOSy0TXd73hIs+hZjTy9HxbeY5ZiHmtFL22ebq2tFRrJ9Sd7utZfNXWkd8LnrMq7bd2ekEkQ4aeVY4fffzCdr1SxUJetGh74yiqFOVmfdreVZZJkxaW2rlKs/yZqXUzQRNa8PJ4ia/ddJucocRM/ehZPTkFgd5xqX2g3LFmzpozRa5f/wJbV8YZhGsbEISbIfK+lU2cWNLRnVV6E42lgXymrEppxThIrMvJU8VziRycq5fPW7Tl7OH1bHgRdKL6ndAzJbsnPMMiEbGYB27w4IaY0w2Vm9aJq+OENmZlGgxHHtADLKQEOzENkv2KfLqby2H2f0c4U7IWDCudBTI4OtelRPicDvYJ9RHqDtjyw7a8kzWC030GPUxYyf87ROcN24TtcZELXWtTlfTFn4ZTjV68Wwl/Qe7xHUZz0dk4d2Xm23nyc677pVs2rbtdjxlxDz+yjUkj0HFj0tlMOGxiYnZPls8ATG7diZLzN4O7hrS2tWD43PaviR4VliDmI97t0ZvoyrM/gEte/hFenYpOw5xBnYy8D3motvBzG+WWrPxgzjtq5yFOLP4OybmKOX7SkYE6gglrhs4MG/SZRAzR+UvyO5x+xasNRufpBXskNRk63NvyUr2pR4nczuhZVe2lI3JoAr9ir4zyVL0K2PV30p3PU9Sh9uRPet23jW/1T7CohxvhIvMvrIcFc5HuhN7TfdvxoiaD60ev1l4pGF30npnvyC+C7huMjFfS1+p53+j55ivuYb8Z4Gzy5k6hWtNxDxcUM9CB+3a9qprRxOzPNMcLxKuo7Frv0Vngva17F7ZZhDzrm6ax7tzM3c/VwNcIY5Jgl12Fmek1FvqGPY8afRS4E1kkt4/+Tn1mAXJBOlm7Thq0a8jy3kr6tspXbV+Tn5Jvat4B76OVqqxM8pUrWONgTY59onQzemmEGM6jjgijRe0dlEd/06vU5c9pnjBUZfMTcRQk4m5tlSvJszpeFyd8Su8HrImIDSGmCXlG71+syYZGjhxuV+5f7xkI/XJPeZDf6c1/EjSLen34pM6r1G/btNbMupu3Niy05+N6yOpB7TdHjpxGSa5HdLqaNm77ZHcR9EIHdp09CQDiKn0S03oG8RcQ8Q72cVCI0BcfRuNIebq+2uNo+/b/BtaNjfeuVy86ccmje+9hKTBE6V/Rzctc7vfmxEtCDHzrYZ1O9z7xxs8hrzZEfK0Zr5Az+2pZxDztCXm9gQkHAnsBgwAA1c7BkDMIOaMt3jBOVztzgHjxxwABqYGAyBmEDOIGWljYAAYAAZyhIGaiHl81iyzO3qy91qvxvqsO6w+p2b1Cb1D78AAMNBOGKiNmB99FMRcZ4Q9/uijIOYcrUjbaZJCVpAKMHB1YaA2YmbHygSDyLnqBYqJlEHKWJRgUQIMAAPAQJUYqJ2Yq2wYK7yra4UHe8PewAAwAAw0BgMJYh4YGDDRIBTcGAVDj9AjMAAMAAPAQC0Y8Ih5ZGSEyuUyjV1/PY19mfKvBhEtIxUDDAADwAAwAAw0FQMRMY+NjdGFCxdocHCQLi5dSmPr1ze141pWDyiL1SYwAAwAA8DA1YIBj5gvXrxI58+fp3PvvWej5vXrETljZYgFGjAADAADwEALMRAR8/j4OI2Ojpqo+dy5c4acTeTMae06HxFCPfwTD2AAGAAGgAFgoDYMeMTM6WwhZ46cz549a+4584Yw/vT39+MDHQADwAAwAAwAA03EgEfMHDULOXNam+8584aw4eFhfKADYAAYAAaAAWCgBRhIEDOTsxC0kDRH0fhAB8AAMAAMAAPAQPMxkEnMQtD4tgsV6AF6AAaAAWAAGGgFBkDMLkPQCmWjD0xqYAAYAAaAgYkw8P8B5tA15TlF6VYAAAAASUVORK5CYII=;" vertex="1" parent="d1NsQLXCly2csUVJhQxa-4">
          <mxGeometry x="22.39" y="40" width="257.61" height="86.4" as="geometry" />
        </mxCell>
        <mxCell id="d1NsQLXCly2csUVJhQxa-16" style="edgeStyle=orthogonalEdgeStyle;rounded=0;orthogonalLoop=1;jettySize=auto;html=1;exitX=1;exitY=0.5;exitDx=0;exitDy=0;endArrow=none;endFill=0;startArrow=classic;startFill=1;" edge="1" parent="Jmml3LspPb3dAqlUMCSL-1" source="d1NsQLXCly2csUVJhQxa-8">
          <mxGeometry relative="1" as="geometry">
            <mxPoint x="460" y="480" as="targetPoint" />
          </mxGeometry>
        </mxCell>
        <mxCell id="d1NsQLXCly2csUVJhQxa-8" value="AuthenticationController" style="swimlane;whiteSpace=wrap;html=1;" vertex="1" parent="Jmml3LspPb3dAqlUMCSL-1">
          <mxGeometry x="45" y="690" width="305" height="90" as="geometry" />
        </mxCell>
        <mxCell id="d1NsQLXCly2csUVJhQxa-12" value="" style="shape=image;verticalLabelPosition=bottom;labelBackgroundColor=default;verticalAlign=top;aspect=fixed;imageAspect=0;image=data:image/png,iVBORw0KGgoAAAANSUhEUgAAAdgAAAA4CAYAAABe6umvAAARd0lEQVR4Ae2d8WsU1xbH+3/ll2xp1bZQWaGxIH0Ef5CKBqFWngSKlhTpEnwqbHlpRBFEIaRSFbFBsa/xoRG7xCpF09pUY55hJUaTbkxiWjiPc+eemXPvzGx2N7vJpvkWlszuzNx77rmfe7733Llj31hcXCR84AMwAAbAABgAA/Vl4A04tL4OhT/hTzAABsAAGGAGILDI4LGCAQbAABgAAw1gAALbAKdi9orZKxgAA2AADEBgIbCYuYIBMAAGwEADGIDANsCpmLli5goGwAAYAAOJAjv43yHCBz4AA2AADIABMFA7A4kCi5kXZl5gAAyAATAABpbHAAQWS8R49gIGwAAYAAMNYCBVYF+/fk38WVhYwAc+AANgAAyAATBQJQMxgRVRnZ+fp1evXtHs7CyVSiV84AMwAAbAABgAA1Uw4AisiCsL68zMDL148YImJyfp2bNn5lMsFgkf+AAMgAEwAAbAwNIMOALLy8Esri9fvqTCxK/02ci39P5wnt4pHMUHPgADYAAMgAEwUAUDocBy9srLwpy5sriysJ59eoselyapODeND3wABsAAGAADYKAKBhyB5ex1amrKZK4srhBWTCzAABgAA2AADNTGQCiwvDzMG5r4mStnr8hca3MoQITfwAAYAANggBlwBJZ3C/OGJn7mCkAACBgAA2AADICB2hmICSzvDIPA1u5QwAjfgQEwAAbAADNQtcB2jw5Q9s5X2ElW4U4y9hX7DAMOAw4MgAEwsL4YqEpgWSjwyk5tryxBZNfXwEIgRX+DATBQlcAic61NXHlSwr7DgMOAAwNgAAysHwaqElhkr7ULLJ5rr59BhQCKvgYDYIAZgMBW+Cy1HpMLDDoMOjAABsDA+mEAAguBxdJ1Ff8yC4Lj+gmO6Gv09XIZgMBCYCGwEFgwAAbAQAMYgMBCYDGwGjCwljvzxf3InsDA2mcAAguBhcBCYMEAGAADDWBg1QX2+B8LlPzfFA344jf+hGb9i+d/Tn4317/2ryd0PCzvOv30l1+Q/p5Qd3hv7TuJMSNd+zNS9GGVffjoHHVkstQin53naKQBgayqfrmRp5ZMngbnpmmwO0st3UN1EJeHdGanbWddyqvSzwk+rV/bytiifFlVHyTYa+43vOyjM4/K1Jl2bxP+vvoCOz2vlc07VkL3fMo7p7+q64wQ/kxP9Gk5DkX2Ot35U35M+vs8Lu6rKrCTdLWrjVoyndT/tDHgjXzbSRsybfTRsSEaXwLU8Ws5as1kae+FMScwFU7sCANp15Ua/zeHT4fo1MFO2nosKehJEFupAThGg6dytHdLjwnGaQGkGt+llbH075NUuNRD+9sPUH+54PPoIu19N0utH/bQ4FRjWFnaVluvCb5Zyt2I7DBBvw4iO9K3j1pqLUeJQt1ESJVZsX+WGGdVl+OJU93a5tnplFuHdjt96bWhah94tq72/U0jsKWpK/Tmd5/bzxUaXmThW6A745wxRoLpXjdMY1YfS39cjzJZEePZYVueXLdAP5nyjtCG7/265mn4gfyWo411EFT/1Z6aO/uXPtqeyVJr17Ulxa/WOioXift0qj1LLRtzdNUJ4Pfp1LYstXzSSXs5WzlYo602KCdnFSstsEOUM5lXkO2k+bZy30VCk1ZW+u8Vtr1pBDawt6PvoTMJK84FPtWim97mdH85QbnaoKpEwRGLasvR13OZtQq+Lmc5x5441a1tnk31LndZfenZVgtLjbyneQR2WglkQTLMebozdpTeUYL51o0jkZAWDtPbD36nkhFZlcU+fmx/I3rynAX6ML1txPsQbbjtL/F6dTVAWEVoa+3Im8e2UUtmF536JT3g1Fp21ff92EPZTJa2n77vBk4zuLO0/9J9Ov8pC3CeBks12LsGBbZqH9YUFCoU2JrKrqGflqrHC/bpPpJJTLC8GgmvFejuvFpithMdYYQnPyxqpq485Xi5NxNlzCZwJy1NlxHYsvfszFPOLAN7Kyjankx0zgiR1K+Wjfn3DmlXiig79/plqrIicdJ+DGwIhPBctHStyjH9YcdssHwf2V20fZfr3heuSMmE1/EP26F8WbbMOeFXHheU60tli52QySOGkI8yNqaz1gDOlxgHTSOwSQu1tPiYvr59lI7PBM9pSy9/UOJqhfL2f+iOyXbVsm74my5VCbAjok0usE8HaP9Gzgwv0qjuTGdwMLRttHVHjs7cnbDCZ4He2UdXL+Ro+2ZeYm6j93b30NUnEWjOgOFgoAZvHNQxOv9p8lJ1UE4wMO6d3WPqCgeDPOtSwa8YDrjgnpgdEpgcm2SQ5uj8jZPUYdqUpQ3/yNH536I2FUtjdPVYJ219NxjMrZt3UVffvSj7twExd2mIeve00wauY+M26ugtBNfEfCtBgf9G2WzM5hTfjdzqo64dth7briTfSBBp3byD9h67TiNmgqIDp7aDj1Ugitkc2Rn2Y+mh45eWd9tVPew/W9ehARrsFf8xMyfp5qTyr+Yw7dgPvInXWRGVLNfcI22SvpZ22O/Wx8b3Ik627U627NTv3qtFIRAh+zjCucd7PmvOReId+lTa5d3r2Gf9KvYF4intSvArlyVtk7Fj2+3YOzdNTj3GD+I/a79ixNwblhv0dcihtl9YEp7td7nWsUHf569OqHPGTinPjn3xR3obyvCxhI2x/pF+WuG/zSuwi7/Tv7/vpk2Fo3TcPqctOVmuZKIikEpgC8ES8OXYjihZIpZ7+a/cb7NlR3z1dcs/rqXT753eRS2ZbZT/0RuIApgWIiMUkjlKgPKDcpZa2vvongXNwK3LCAeBVx9fb5eqs8cKbvY6NxFkrZt76CZfNxxkudl8dF0QVHSAEvtqEdh4m6Ll8wm6fJAnAf41bdTxjV2uNAPfP8/f7SpBmm9NmVFgrMR3o5cOmOfVvj0SrJgJ8Y1/TRCA6iWwD6l/d5JfstT66YCdvKXXFVuxWCpQqeCayr3xcyQIMukK2u0FV/GT5TM9KAfcOiLAtmp71LG+jo8l6BubjX22v9U9ie1xzsdt1/bqOhPLcnxrx4ltt3+vLlcyT9kgVPZatjcUW/ZZUI/hMtYvrhg75ep262OnDX4sCcoTX6e2IWaH8mvsnGvj0n71bWrM96YRWPfZ6uf0phVXXl7d9Ox5kIrOJewYHn9il4O1wAZiuPG6PFOVZ7BEpRm9FN3kAlsqUH6zK4ip4EwXqJefgYYzVjswM23UcaJAo5wNFa9TjssLr1FQmcFRPoNNXaouDtB+fkYs4lwaohxn3SK4EhzLZLBhu8raIW3K0tbOi3SP23T3JH3EwifBwk4CWtp7aNBuCBv94YhZ1g6vkTo27qH8Lc74J+hyZyC4WvjCjE5lraGdOoBIedL+8Jztv0w7dX13n8YrXDIfvfBFMEFwypO2a0FS/RfWKSIZTQSMzXbS0/JBnq5av4z/djFYHcnso36zqiH3ttH2/JBhZvy7JFuS6vV+iwVA7zzba/ym7VQB1MtyuA06sKcGZeMHXY6tV9eljqMyxb8BB9Fkx/pb3ZPOgLQlHuy1vVGdCT5h+43vxI591MHL0nUWWGNPbBJqJxixvnPb49iv/KLbGPORuc5t05ICq8oOylP9uoSNsfrD8ZHi8wadbx6BTcxObdY4dDfczDSrNzOpzU80ezfcmCSv/kTXHqavp4LdyvEsuHkz2NELnWapteuKLPsqOHi5r/cAfbzFz0okAEvAkO98b9JvtkwZAE5QV/U9vWg2L7UmbF4av5JLyBh5MO2gUw+CMsygrJvAqjZJMBKBlXYkBI+YwKq2xu1ju0VwJHAqf+gBKXWq8swAf2JfUVErBkkDf/TuRcrt2UHv8aRE2+2UV6bvtC0pNo98EzxPczNRv8yE9qa1zakzyS9B2RJEo3ar32NBUp1blsC6YmzqNu2w/aiOtVjwcdxe2zZ1T9QW1W7nvG5HcI0WH11nUln+ef1dH/O9utzlZbCqLbF+qUxg4xMmKdP3h/s9tQ0xO9R9sXOujUl+XY3f1obA8ial/03qB6re8SRdvn44fD676VG0ycm9cJ7uPNKbpJo5g7W7dTkLTMh8BrtZWLdR7ofgdZjxX65RLjGDjcRodPg0dZggfoDOFwV++9cEiGim7MOYulQ9N0mXD3rCoERCAroJDLw56sR9KpYm6OZpfi2I74vsM3WKHZ0DQdbtBPJggDn3mIGmMljJ1HaepJtPU14VkjqUgIl9yRnsF3F/absSygv8N0RHjL/LZLBi/+6+ICOfHqPCaZ5Y+X0hbd9BvXe9vtO2pAhs8VY+WKrWGeyDPo+HegqsZKj6sYAVhHBFQAVMboPxo/Dgnasqg5WyZGJkfSf9beoJzjmCpX7n/jOBX2z1zvnjwxcXRzRsn4h4O3U6fRf0qzkvE0bhw9ru2CQTZuda8V98kpFkU8i7rWdZS8S2nW6ZbE+S/6PJjGOXsUPa4DGg+XCuY79BYEMBlF21/Lf881WbwfJz0aEcvRnuGFayaV7F8V6rud1Nb8Wu5ddw1s4uYnnXVATKHdDlRM2F08mIrPBt/Ze862rBV4IYXS/BaZqKU9eoi4UiKROT5WAZ5BIwHpx2lm75WWRUthZksdeKhgiBtkkCowQULcoSgML60581SoALgqErYGkCGwiktlf8UpnvCif4Gbq+PzgOg5D4KeEaWRYM+n6M+nf75US+CwKvf17VxY8bPkg+H/FQZ4FlFqR/pH1hP8kkQepUthqGvODqCWxUbp4GY8E2KNvxia5XiaUvds49mjN1jzsWbTsSzgtTpv9DhuPCFytP+2znORp03vnV/tpHZ/r0s9SISeYrsW3aD7qeTCR4fiYcEy/TVjup9dvtlRlyLvcwB91Drm3hPUl9qdurJmvmnoj/mI0Sh1b576pnsJtuHDLvqrqv3yhh1ZuOWDjDd2Xt81WVuWrhfid2bZK4cj3yTmza+RRbtF0VHscGUmrnj1H/J0nvmkpQmqbibwPU1b4tyEp4N+iXF6nXPEcU6GSwtVGrXXrcsKWTchfuqcxQrkkKvCIk0xQuVV9LyAhvBJnRR5yZOu2R7M3+4xilh3T+4K4ga7W7V/sPcb1ir7Rtgm6GO1itXWFwEnvVPTI4deCYvEf9X8ou2Kht1QvsNI3/eJL2Osvw4hexJSo/ElK5hts0QYULR2jvh7avrNCEgWdOt7eN3ms/QL1n8/SxDUSOT3Wfm3IiP7jC4NoU1lUcolP/3BUuRW/YssfsrjbP503fSTBT9ktgDPtA+gl/nb5x2Idv4JuAgVUXWEcUKxSqtXpPxdAN99DWTJbiu3WrGbgiAFEQrrh+HSwk80lZqq6pTF0+jr2JSTV9jGvBHxhoZgYgsCso6pWBUK9/FrE+AitL1f4/i1hZWzD44ScwAAbWLwMQ2KYT2HrBWB+BRXCoV3+gHLAEBtYbAxDYv63AYjCvt8GM9oJ5MNBcDEBgIbB4BojnwGAADICBBjBQlcBm73yV+KrNWt10tJJ2s+8wu2yu2SX6A/0BBsBAIxmoSmC7RwcgsDVmvOy7RnYkykagAANgAAw0FwNVCSx3HgsFMtnK341lX0Fcmwt6BCH0BxgAAyvBQNUCuxJGoQ7ADwbAABgAA2udgZjAPnv2zCwDr/WGwX4MTjAABsAAGFhNBhyBnZ2dpcnJSXp/OE+PSwn/LF4DdlmtZuNRNwYfGAADYAAMNIqBUGBfv35Nr169oqmpKfps5Fs6+/QWNuVgQgEGwAAYAANgoEYGHIGdn5+nmZkZKkz8arJYFllkspjdNWp2h3LBFhgAA39nBkKBXVxcpIWFBZPFvnz50ogsZ7K8XLyS74uirsp3KMNX8BUYAANgoHkZcASWl4lFZDmTffHihXkmyxuf+FMsFvGBD8AAGAADYAAMVMCAI7CcxYrI8nIxP5PljU+lUgkf+AAMgAEwAAbAQBUMxASWRVaEVsSWs1p84AMwAAbAABgAA5UzkCqwIrT4G0w44Af4AQyAATAABqph4P9LKio8nlcJQAAAAABJRU5ErkJggg==;" vertex="1" parent="d1NsQLXCly2csUVJhQxa-8">
          <mxGeometry x="18.74" y="40" width="271.48" height="32.21" as="geometry" />
        </mxCell>
        <mxCell id="Jmml3LspPb3dAqlUMCSL-8" value="PiggyBankFrontEnd" style="swimlane;whiteSpace=wrap;html=1;" parent="1" vertex="1">
          <mxGeometry x="500" y="170" width="260" height="200" as="geometry" />
        </mxCell>
        <mxCell id="Jmml3LspPb3dAqlUMCSL-13" value="HTML, CSS, Bootstrap 5, React JS" style="text;html=1;align=center;verticalAlign=middle;resizable=0;points=[];autosize=1;strokeColor=none;fillColor=none;" parent="Jmml3LspPb3dAqlUMCSL-8" vertex="1">
          <mxGeometry x="25" y="28" width="210" height="30" as="geometry" />
        </mxCell>
        <mxCell id="Jmml3LspPb3dAqlUMCSL-17" value="Список целей" style="swimlane;whiteSpace=wrap;html=1;" parent="Jmml3LspPb3dAqlUMCSL-8" vertex="1">
          <mxGeometry x="30" y="58" width="200" height="50" as="geometry" />
        </mxCell>
        <mxCell id="Jmml3LspPb3dAqlUMCSL-14" value="Список пользователей" style="swimlane;whiteSpace=wrap;html=1;" parent="Jmml3LspPb3dAqlUMCSL-8" vertex="1">
          <mxGeometry x="30" y="130" width="200" height="50" as="geometry" />
        </mxCell>
        <mxCell id="Jmml3LspPb3dAqlUMCSL-21" style="edgeStyle=orthogonalEdgeStyle;rounded=0;orthogonalLoop=1;jettySize=auto;html=1;exitX=0;exitY=0.5;exitDx=0;exitDy=0;entryX=1;entryY=0.25;entryDx=0;entryDy=0;startArrow=classic;startFill=1;" parent="1" source="Jmml3LspPb3dAqlUMCSL-14" target="Jmml3LspPb3dAqlUMCSL-10" edge="1">
          <mxGeometry relative="1" as="geometry">
            <mxPoint x="430" y="430" as="targetPoint" />
          </mxGeometry>
        </mxCell>
        <mxCell id="Jmml3LspPb3dAqlUMCSL-22" style="edgeStyle=orthogonalEdgeStyle;rounded=0;orthogonalLoop=1;jettySize=auto;html=1;exitX=0;exitY=0.5;exitDx=0;exitDy=0;entryX=1;entryY=0.25;entryDx=0;entryDy=0;startArrow=classic;startFill=1;" parent="1" source="Jmml3LspPb3dAqlUMCSL-17" target="Jmml3LspPb3dAqlUMCSL-4" edge="1">
          <mxGeometry relative="1" as="geometry">
            <mxPoint x="410" y="190" as="targetPoint" />
            <Array as="points">
              <mxPoint x="390" y="253" />
              <mxPoint x="390" y="209" />
            </Array>
          </mxGeometry>
        </mxCell>
      </root>
    </mxGraphModel>
  </diagram>
</mxfile>
